<svg width="14" height="14" viewBox="0 0 14 14" fill="none" xmlns="http://www.w3.org/2000/svg">
<path d="M2.22711 1.16639C1.93421 0.873493 1.45934 0.873493 1.16645 1.16639C0.873554 1.45928 0.873554 1.93415 1.16645 2.22705L2.22711 1.16639ZM12.3034 13.0533C12.7176 13.0533 13.0534 12.7175 13.0534 12.3033L13.0534 5.55332C13.0534 5.1391 12.7176 4.80332 12.3034 4.80332C11.8892 4.80332 11.5534 5.1391 11.5534 5.55332V11.5533H5.55338C5.13917 11.5533 4.80338 11.8891 4.80338 12.3033C4.80338 12.7175 5.13917 13.0533 5.55338 13.0533L12.3034 13.0533ZM1.69678 1.69672L1.16645 2.22705L11.773 12.8336L12.3034 12.3033L12.8337 11.773L2.22711 1.16639L1.69678 1.69672Z" fill="#2B2A29"/>
</svg>
