<svg width="14" height="14" viewBox="0 0 14 14" fill="none" xmlns="http://www.w3.org/2000/svg">
<path d="M6.57592 2.15076C6.52329 2.09507 6.48215 2.02956 6.45484 1.95797C6.42753 1.88638 6.41459 1.81011 6.41676 1.73351C6.41893 1.65692 6.43616 1.5815 6.46747 1.51157C6.49878 1.44164 6.54356 1.37856 6.59925 1.32593C6.65495 1.2733 6.72046 1.23216 6.79205 1.20485C6.86364 1.17754 6.93991 1.1646 7.0165 1.16677C7.0931 1.16893 7.16851 1.18617 7.23845 1.21748C7.30838 1.24879 7.37146 1.29357 7.42409 1.34926L12.3824 6.59926C12.4848 6.70757 12.5419 6.85096 12.5419 7.00001C12.5419 7.14906 12.4848 7.29246 12.3824 7.40076L7.42409 12.6513C7.37181 12.7083 7.30874 12.7542 7.23855 12.7865C7.16836 12.8189 7.09244 12.8369 7.01521 12.8397C6.93798 12.8424 6.86098 12.8298 6.78867 12.8025C6.71636 12.7753 6.65019 12.7339 6.59401 12.6808C6.53782 12.6278 6.49273 12.5641 6.46137 12.4935C6.43001 12.4228 6.41299 12.3467 6.41131 12.2694C6.40962 12.1922 6.42331 12.1153 6.45157 12.0434C6.47983 11.9715 6.5221 11.9059 6.57592 11.8504L11.1563 7.00001L6.57592 2.15076Z" fill="white"/>
</svg>
