<svg width="186" height="50" viewBox="0 0 186 50" fill="none" xmlns="http://www.w3.org/2000/svg">
<path d="M34.3449 24.6302L18.7602 9.22932C18.7602 9.22932 14.9402 4.91897 11.2148 7.07414C9.82266 7.88018 9.02344 9.41897 9.02344 11.031V37.3974C9.02344 38.8414 9.52188 40.2466 10.4629 41.3371C12.3492 43.531 15.8941 45.8112 19.9074 39.2336" stroke="black" stroke-width="4" stroke-miterlimit="10" stroke-linecap="round"/>
<path d="M20.509 25.4104L36.0938 40.8112C36.0938 40.8112 39.9137 45.1216 43.6391 42.9664C45.0313 42.1604 45.8305 40.6216 45.8305 39.0095V12.6431C45.8305 11.1991 45.332 9.79397 44.391 8.70345C42.5047 6.50949 38.9598 4.22932 34.9465 10.8069" stroke="black" stroke-width="4" stroke-miterlimit="10" stroke-linecap="round"/>
<path d="M73.32 21H70.46V15.4H64.16V21H61.32V7.66H64.16V12.9H70.46V7.66H73.32V21ZM87.3689 21H83.8689L79.8289 15.66L78.7889 16.9V21H75.9489V7.66H78.7889V13.62L83.5089 7.66H87.0089L81.7089 13.92L87.3689 21ZM94.1863 21.24C90.1863 21.24 87.0863 18.44 87.0863 14.34C87.0863 10.24 90.1863 7.44 94.1863 7.44C97.1263 7.44 98.8263 9.04 99.7663 10.7L97.3263 11.9C96.7663 10.82 95.5663 9.96 94.1863 9.96C91.7663 9.96 90.0063 11.82 90.0063 14.34C90.0063 16.86 91.7663 18.72 94.1863 18.72C95.5663 18.72 96.7663 17.88 97.3263 16.78L99.7663 17.96C98.8063 19.62 97.1263 21.24 94.1863 21.24ZM106.077 21.24C103.137 21.24 101.457 19.62 100.517 17.96L102.957 16.78C103.517 17.88 104.717 18.72 106.137 18.72C108.197 18.72 109.717 17.4 110.157 15.48H103.757V12.98H110.097C109.597 11.18 108.117 9.96 106.137 9.96C104.717 9.96 103.517 10.82 102.957 11.9L100.517 10.7C101.457 9.04 103.137 7.44 106.077 7.44C110.097 7.44 113.177 10.24 113.177 14.34C113.177 18.44 110.097 21.24 106.077 21.24ZM73.32 41H70.46V30.16H64.16V41H61.32V27.66H73.32V41ZM82.2689 41.24C78.2489 41.24 75.3089 38.36 75.3089 34.34C75.3089 30.32 78.2489 27.44 82.2689 27.44C86.3089 27.44 89.2489 30.32 89.2489 34.34C89.2489 38.36 86.3089 41.24 82.2689 41.24ZM82.2689 38.72C84.7289 38.72 86.3289 36.82 86.3289 34.34C86.3289 31.84 84.7289 29.96 82.2689 29.96C79.8089 29.96 78.2289 31.84 78.2289 34.34C78.2289 36.82 79.8089 38.72 82.2689 38.72ZM96.6936 41H93.8336V30.16H89.9336V27.66H100.574V30.16H96.6936V41ZM111.834 41H102.394V27.66H111.834V30.16H105.234V32.98H111.694V35.48H105.234V38.5H111.834V41ZM116.894 41H114.054V27.66H120.294C123.194 27.66 124.774 29.62 124.774 31.96C124.774 34.28 123.174 36.26 120.294 36.26H116.894V41ZM119.914 33.76C121.034 33.76 121.874 33.06 121.874 31.96C121.874 30.84 121.034 30.16 119.914 30.16H116.894V33.76H119.914ZM129.215 41H125.955L128.955 35.92C127.515 35.58 126.035 34.32 126.035 31.96C126.035 29.48 127.735 27.66 130.515 27.66H136.755V41H133.915V36.26H131.855L129.215 41ZM130.935 33.76H133.915V30.16H130.935C129.795 30.16 128.935 30.84 128.935 31.96C128.935 33.08 129.795 33.76 130.935 33.76ZM153.546 27.66H156.406V41H139.386V27.66H142.226V38.5H146.466V27.66H149.326V38.5H153.546V27.66ZM170.474 41H166.974L162.934 35.66L161.894 36.9V41H159.054V27.66H161.894V33.62L166.614 27.66H170.114L164.814 33.92L170.474 41ZM174.509 41H171.769V27.66H174.609V36.28L180.789 27.66H183.709V41H180.869V32.06L174.509 41Z" fill="black"/>
</svg>
