<svg width="24" height="28" viewBox="0 0 24 28" fill="none" xmlns="http://www.w3.org/2000/svg">
<path d="M12 -0.000976562C18.6274 -0.000976562 24 5.37258 24 12C23.9998 17.901 19.7401 22.8072 14.1279 23.8115L12.9785 27.6436C12.9149 27.8548 12.7206 28 12.5 28C12.2794 28 12.0851 27.8548 12.0215 27.6436L10.9131 23.9492C4.79523 23.3999 0.000249294 18.2608 0 12C0 5.37258 5.37258 -0.000976562 12 -0.000976562Z" fill="black"/>
<path d="M7 11.75H8.25V16.75M9.5 15.5V13H14.5V15.5M7 11.75L12 9.25L17 11.75L12 14.25" fill="white"/>
</svg>
