<svg width="20" height="21" viewBox="0 0 20 21" fill="none" xmlns="http://www.w3.org/2000/svg">
<path d="M17.09 12.941V17.381C17.0898 18.0092 16.8401 18.6116 16.3959 19.0558C15.9516 19.5 15.3492 19.7497 14.721 19.75H3.12002C2.80777 19.7499 2.49863 19.688 2.21035 19.568C1.92208 19.4481 1.66035 19.2723 1.44021 19.0509C1.22007 18.8294 1.04586 18.5667 0.927584 18.2777C0.80931 17.9887 0.749306 17.6792 0.751018 17.367V5.77898C0.74916 5.46723 0.809194 5.1582 0.927639 4.86982C1.04608 4.58144 1.22059 4.31944 1.44103 4.09899C1.66148 3.87855 1.92348 3.70404 2.21186 3.5856C2.50025 3.46715 2.80927 3.40712 3.12102 3.40898H7.56002" stroke="#2B2A29" stroke-opacity="0.2" stroke-width="1.5" stroke-linecap="round" stroke-linejoin="round"/>
<path d="M17.09 7.49497L13.005 3.40897M4.83496 14.303V12.138C4.83696 11.781 4.97896 11.438 5.22996 11.185L14.762 1.65297C14.8884 1.52507 15.039 1.42354 15.205 1.35424C15.371 1.28495 15.5491 1.24927 15.729 1.24927C15.9088 1.24927 16.0869 1.28495 16.2529 1.35424C16.4189 1.42354 16.5695 1.52507 16.696 1.65297L18.847 3.80397C18.9749 3.93045 19.0764 4.08104 19.1457 4.24702C19.215 4.41301 19.2507 4.5911 19.2507 4.77097C19.2507 4.95084 19.215 5.12892 19.1457 5.29491C19.0764 5.4609 18.9749 5.61149 18.847 5.73797L9.31496 15.27C9.0615 15.5217 8.71918 15.6636 8.36196 15.665H6.19696C6.01803 15.6652 5.8408 15.6302 5.67544 15.5618C5.51007 15.4935 5.35982 15.3932 5.2333 15.2666C5.10677 15.1401 5.00646 14.9899 4.9381 14.8245C4.86975 14.6591 4.8347 14.4819 4.83496 14.303Z" stroke="#2B2A29" stroke-opacity="0.2" stroke-width="1.5" stroke-linecap="round" stroke-linejoin="round"/>
</svg>
