<svg width="610" height="48" viewBox="0 0 610 48" fill="none" xmlns="http://www.w3.org/2000/svg">
<path d="M42.2457 17V7.512H36.0057V17H34.6777V6.328H43.5737V17H42.2457ZM49.3963 17.192C48.8096 17.192 48.2763 17.0853 47.7963 16.872C47.327 16.6587 46.927 16.3707 46.5963 16.008C46.2656 15.6347 46.0096 15.2027 45.8283 14.712C45.6576 14.2213 45.5723 13.6933 45.5723 13.128C45.5723 12.5733 45.6576 12.0507 45.8283 11.56C46.0096 11.0587 46.2656 10.6267 46.5963 10.264C46.927 9.90133 47.327 9.61333 47.7963 9.4C48.2763 9.18667 48.8096 9.08 49.3963 9.08C49.983 9.08 50.511 9.18667 50.9803 9.4C51.4603 9.61333 51.8656 9.90133 52.1963 10.264C52.527 10.6267 52.7776 11.0587 52.9483 11.56C53.1296 12.0507 53.2203 12.5733 53.2203 13.128C53.2203 13.6933 53.1296 14.2213 52.9483 14.712C52.7776 15.2027 52.527 15.6347 52.1963 16.008C51.8656 16.3707 51.4603 16.6587 50.9803 16.872C50.511 17.0853 49.983 17.192 49.3963 17.192ZM49.3963 16.12C49.8123 16.12 50.175 16.04 50.4843 15.88C50.8043 15.7093 51.071 15.4907 51.2843 15.224C51.5083 14.9467 51.6736 14.6267 51.7803 14.264C51.8976 13.9013 51.9563 13.5227 51.9563 13.128C51.9563 12.7333 51.8976 12.36 51.7803 12.008C51.6736 11.6453 51.5083 11.3307 51.2843 11.064C51.071 10.7867 50.8043 10.568 50.4843 10.408C50.175 10.2373 49.8123 10.152 49.3963 10.152C48.9803 10.152 48.6123 10.2373 48.2923 10.408C47.9723 10.568 47.7003 10.7867 47.4763 11.064C47.263 11.3307 47.0976 11.6453 46.9803 12.008C46.8736 12.36 46.8203 12.7333 46.8203 13.128C46.8203 13.5227 46.8736 13.9013 46.9803 14.264C47.0976 14.6267 47.263 14.9467 47.4763 15.224C47.7003 15.4907 47.9723 15.7093 48.2923 15.88C48.6123 16.04 48.9803 16.12 49.3963 16.12ZM60.4406 17L57.6566 13.528L56.3766 14.792V17H55.1766V9.272H56.3766V13.384L60.4406 9.272H61.9606L58.5366 12.776L61.9766 17H60.4406ZM68.2273 17V16.12C67.5766 16.8347 66.7233 17.192 65.6673 17.192C65.3366 17.192 65.0113 17.1387 64.6913 17.032C64.3713 16.9253 64.0833 16.7653 63.8273 16.552C63.5713 16.328 63.3633 16.056 63.2033 15.736C63.0433 15.416 62.9633 15.048 62.9633 14.632C62.9633 14.2053 63.0433 13.832 63.2033 13.512C63.3633 13.192 63.5713 12.9253 63.8273 12.712C64.0833 12.4987 64.3713 12.344 64.6913 12.248C65.0113 12.1413 65.3366 12.088 65.6673 12.088C66.2006 12.088 66.6806 12.1733 67.1073 12.344C67.5446 12.5147 67.918 12.7813 68.2273 13.144V11.752C68.2273 11.2293 68.0406 10.8293 67.6673 10.552C67.3046 10.264 66.8406 10.12 66.2753 10.12C65.3686 10.12 64.5793 10.4773 63.9073 11.192L63.3473 10.36C64.1686 9.50667 65.198 9.08 66.4353 9.08C66.8406 9.08 67.2246 9.128 67.5873 9.224C67.95 9.32 68.2646 9.47467 68.5313 9.688C68.8086 9.89067 69.0273 10.1573 69.1873 10.488C69.3473 10.8187 69.4273 11.2187 69.4273 11.688V17H68.2273ZM66.0993 16.328C66.526 16.328 66.926 16.248 67.2993 16.088C67.6833 15.928 67.9926 15.688 68.2273 15.368V13.912C67.9926 13.592 67.6833 13.352 67.2993 13.192C66.926 13.032 66.526 12.952 66.0993 12.952C65.534 12.952 65.0753 13.112 64.7233 13.432C64.3713 13.7413 64.1953 14.1467 64.1953 14.648C64.1953 15.1387 64.3713 15.544 64.7233 15.864C65.0753 16.1733 65.534 16.328 66.0993 16.328ZM75.9578 17V9.272H80.2138C80.8965 9.272 81.4298 9.45867 81.8138 9.832C82.1978 10.1947 82.3898 10.6693 82.3898 11.256C82.3898 11.7253 82.2618 12.1093 82.0058 12.408C81.7605 12.7067 81.4725 12.9093 81.1418 13.016C81.3338 13.0693 81.5151 13.1547 81.6858 13.272C81.8565 13.3893 82.0058 13.5333 82.1338 13.704C82.2618 13.8747 82.3631 14.0613 82.4378 14.264C82.5125 14.4667 82.5498 14.68 82.5498 14.904C82.5498 15.5333 82.3525 16.04 81.9578 16.424C81.5631 16.808 81.0085 17 80.2938 17H75.9578ZM80.0538 15.944C80.4378 15.944 80.7418 15.8427 80.9658 15.64C81.1898 15.4267 81.3018 15.1333 81.3018 14.76C81.3018 14.4507 81.1951 14.1733 80.9818 13.928C80.7685 13.6827 80.4591 13.56 80.0538 13.56H77.1578V15.944H80.0538ZM80.0058 12.504C80.3791 12.504 80.6618 12.4027 80.8538 12.2C81.0565 11.9973 81.1578 11.7413 81.1578 11.432C81.1578 11.0907 81.0565 10.824 80.8538 10.632C80.6618 10.4293 80.3791 10.328 80.0058 10.328H77.1578V12.504H80.0058ZM89.6492 17V16.12C88.9985 16.8347 88.1452 17.192 87.0892 17.192C86.7585 17.192 86.4332 17.1387 86.1132 17.032C85.7932 16.9253 85.5052 16.7653 85.2492 16.552C84.9932 16.328 84.7852 16.056 84.6252 15.736C84.4652 15.416 84.3852 15.048 84.3852 14.632C84.3852 14.2053 84.4652 13.832 84.6252 13.512C84.7852 13.192 84.9932 12.9253 85.2492 12.712C85.5052 12.4987 85.7932 12.344 86.1132 12.248C86.4332 12.1413 86.7585 12.088 87.0892 12.088C87.6225 12.088 88.1025 12.1733 88.5292 12.344C88.9665 12.5147 89.3399 12.7813 89.6492 13.144V11.752C89.6492 11.2293 89.4625 10.8293 89.0892 10.552C88.7265 10.264 88.2625 10.12 87.6972 10.12C86.7905 10.12 86.0012 10.4773 85.3292 11.192L84.7692 10.36C85.5905 9.50667 86.6199 9.08 87.8572 9.08C88.2625 9.08 88.6465 9.128 89.0092 9.224C89.3719 9.32 89.6865 9.47467 89.9532 9.688C90.2305 9.89067 90.4492 10.1573 90.6092 10.488C90.7692 10.8187 90.8492 11.2187 90.8492 11.688V17H89.6492ZM87.5212 16.328C87.9479 16.328 88.3479 16.248 88.7212 16.088C89.1052 15.928 89.4145 15.688 89.6492 15.368V13.912C89.4145 13.592 89.1052 13.352 88.7212 13.192C88.3479 13.032 87.9479 12.952 87.5212 12.952C86.9559 12.952 86.4972 13.112 86.1452 13.432C85.7932 13.7413 85.6172 14.1467 85.6172 14.648C85.6172 15.1387 85.7932 15.544 86.1452 15.864C86.4972 16.1733 86.9559 16.328 87.5212 16.328ZM103.383 9.272V17H93.2547V9.272H94.4547V15.944H97.7187V9.272H98.9187V15.944H102.183V9.272H103.383ZM109.274 17.192C108.698 17.192 108.17 17.096 107.69 16.904C107.21 16.7013 106.794 16.424 106.442 16.072C106.101 15.7093 105.829 15.2827 105.626 14.792C105.434 14.2907 105.338 13.736 105.338 13.128C105.338 12.5733 105.434 12.0507 105.626 11.56C105.818 11.0587 106.079 10.6267 106.41 10.264C106.751 9.90133 107.151 9.61333 107.61 9.4C108.079 9.18667 108.591 9.08 109.146 9.08C109.733 9.08 110.255 9.18667 110.714 9.4C111.173 9.61333 111.562 9.90667 111.882 10.28C112.202 10.6533 112.442 11.096 112.602 11.608C112.773 12.1093 112.858 12.648 112.858 13.224V13.528H106.602C106.623 13.8907 106.703 14.2373 106.842 14.568C106.981 14.888 107.167 15.1707 107.402 15.416C107.647 15.6507 107.935 15.8427 108.266 15.992C108.597 16.1307 108.97 16.2 109.386 16.2C109.834 16.2 110.266 16.1147 110.682 15.944C111.098 15.7733 111.461 15.5333 111.77 15.224L112.346 16.008C111.962 16.392 111.514 16.6853 111.002 16.888C110.49 17.0907 109.914 17.192 109.274 17.192ZM111.674 12.648C111.674 12.36 111.621 12.0667 111.514 11.768C111.418 11.4587 111.263 11.1813 111.05 10.936C110.847 10.68 110.586 10.472 110.266 10.312C109.946 10.152 109.567 10.072 109.13 10.072C108.714 10.072 108.351 10.152 108.042 10.312C107.733 10.472 107.471 10.6747 107.258 10.92C107.055 11.1653 106.895 11.4427 106.778 11.752C106.671 12.0507 106.613 12.3493 106.602 12.648H111.674ZM122.335 17.192C121.759 17.192 121.231 17.0907 120.751 16.888C120.281 16.6747 119.876 16.3867 119.535 16.024C119.204 15.6613 118.943 15.2347 118.751 14.744C118.569 14.2427 118.479 13.704 118.479 13.128C118.479 12.552 118.569 12.0187 118.751 11.528C118.943 11.0373 119.204 10.6107 119.535 10.248C119.876 9.88533 120.281 9.60267 120.751 9.4C121.231 9.18667 121.759 9.08 122.335 9.08C123.039 9.08 123.609 9.208 124.047 9.464C124.495 9.72 124.868 10.04 125.167 10.424L124.367 11.16C124.111 10.808 123.817 10.552 123.487 10.392C123.167 10.232 122.804 10.152 122.399 10.152C121.983 10.152 121.609 10.2267 121.279 10.376C120.959 10.5253 120.681 10.7333 120.447 11C120.212 11.2667 120.031 11.5813 119.903 11.944C119.785 12.3067 119.727 12.7013 119.727 13.128C119.727 13.5547 119.785 13.9547 119.903 14.328C120.031 14.6907 120.212 15.0053 120.447 15.272C120.681 15.5387 120.959 15.7467 121.279 15.896C121.609 16.0453 121.983 16.12 122.399 16.12C123.209 16.12 123.865 15.784 124.367 15.112L125.167 15.848C124.868 16.232 124.495 16.552 124.047 16.808C123.609 17.064 123.039 17.192 122.335 17.192ZM130.336 17.192C129.76 17.192 129.232 17.096 128.752 16.904C128.272 16.7013 127.856 16.424 127.504 16.072C127.163 15.7093 126.891 15.2827 126.688 14.792C126.496 14.2907 126.4 13.736 126.4 13.128C126.4 12.5733 126.496 12.0507 126.688 11.56C126.88 11.0587 127.142 10.6267 127.472 10.264C127.814 9.90133 128.214 9.61333 128.672 9.4C129.142 9.18667 129.654 9.08 130.208 9.08C130.795 9.08 131.318 9.18667 131.776 9.4C132.235 9.61333 132.624 9.90667 132.944 10.28C133.264 10.6533 133.504 11.096 133.664 11.608C133.835 12.1093 133.92 12.648 133.92 13.224V13.528H127.664C127.686 13.8907 127.766 14.2373 127.904 14.568C128.043 14.888 128.23 15.1707 128.464 15.416C128.71 15.6507 128.998 15.8427 129.328 15.992C129.659 16.1307 130.032 16.2 130.448 16.2C130.896 16.2 131.328 16.1147 131.744 15.944C132.16 15.7733 132.523 15.5333 132.832 15.224L133.408 16.008C133.024 16.392 132.576 16.6853 132.064 16.888C131.552 17.0907 130.976 17.192 130.336 17.192ZM132.736 12.648C132.736 12.36 132.683 12.0667 132.576 11.768C132.48 11.4587 132.326 11.1813 132.112 10.936C131.91 10.68 131.648 10.472 131.328 10.312C131.008 10.152 130.63 10.072 130.192 10.072C129.776 10.072 129.414 10.152 129.104 10.312C128.795 10.472 128.534 10.6747 128.32 10.92C128.118 11.1653 127.958 11.4427 127.84 11.752C127.734 12.0507 127.675 12.3493 127.664 12.648H132.736ZM139.672 17.192C139.139 17.192 138.648 17.0747 138.2 16.84C137.752 16.6053 137.373 16.2693 137.064 15.832V19.944H135.864V9.272H137.064V10.424C137.341 10.0293 137.709 9.70933 138.168 9.464C138.627 9.208 139.128 9.08 139.672 9.08C140.184 9.08 140.648 9.176 141.064 9.368C141.491 9.54933 141.853 9.816 142.152 10.168C142.461 10.5093 142.696 10.9307 142.856 11.432C143.027 11.9333 143.112 12.4987 143.112 13.128C143.112 13.7573 143.027 14.3227 142.856 14.824C142.696 15.3253 142.461 15.752 142.152 16.104C141.853 16.456 141.491 16.728 141.064 16.92C140.648 17.1013 140.184 17.192 139.672 17.192ZM139.368 16.12C139.752 16.12 140.099 16.0453 140.408 15.896C140.717 15.7467 140.979 15.5387 141.192 15.272C141.405 15.0053 141.565 14.6907 141.672 14.328C141.789 13.9547 141.848 13.5547 141.848 13.128C141.848 12.7013 141.789 12.3067 141.672 11.944C141.565 11.5813 141.405 11.2667 141.192 11C140.979 10.7333 140.717 10.5253 140.408 10.376C140.099 10.2267 139.752 10.152 139.368 10.152C138.888 10.152 138.435 10.2747 138.008 10.52C137.592 10.7547 137.277 11.0427 137.064 11.384V14.872C137.277 15.2133 137.592 15.5067 138.008 15.752C138.435 15.9973 138.888 16.12 139.368 16.12ZM144.108 16.008C144.29 15.976 144.45 15.912 144.588 15.816C144.738 15.72 144.871 15.5653 144.988 15.352C145.116 15.1387 145.228 14.8507 145.324 14.488C145.42 14.1253 145.506 13.656 145.58 13.08L146.076 9.272H151.452V15.944H152.348V18.968H151.148V17H145.308V18.968H144.108V16.008ZM146.78 13.224C146.684 13.96 146.54 14.5413 146.348 14.968C146.167 15.3947 145.938 15.72 145.66 15.944H150.252V10.328H147.132L146.78 13.224ZM160.117 17H153.989V9.272H155.189V15.944H159.221V9.272H160.421V15.944H161.317V18.968H160.117V17ZM166.446 17.192C165.87 17.192 165.342 17.096 164.862 16.904C164.382 16.7013 163.966 16.424 163.614 16.072C163.272 15.7093 163 15.2827 162.798 14.792C162.606 14.2907 162.51 13.736 162.51 13.128C162.51 12.5733 162.606 12.0507 162.798 11.56C162.99 11.0587 163.251 10.6267 163.582 10.264C163.923 9.90133 164.323 9.61333 164.782 9.4C165.251 9.18667 165.763 9.08 166.318 9.08C166.904 9.08 167.427 9.18667 167.886 9.4C168.344 9.61333 168.734 9.90667 169.054 10.28C169.374 10.6533 169.614 11.096 169.774 11.608C169.944 12.1093 170.03 12.648 170.03 13.224V13.528H163.774C163.795 13.8907 163.875 14.2373 164.014 14.568C164.152 14.888 164.339 15.1707 164.574 15.416C164.819 15.6507 165.107 15.8427 165.438 15.992C165.768 16.1307 166.142 16.2 166.558 16.2C167.006 16.2 167.438 16.1147 167.854 15.944C168.27 15.7733 168.632 15.5333 168.942 15.224L169.518 16.008C169.134 16.392 168.686 16.6853 168.174 16.888C167.662 17.0907 167.086 17.192 166.446 17.192ZM168.846 12.648C168.846 12.36 168.792 12.0667 168.686 11.768C168.59 11.4587 168.435 11.1813 168.222 10.936C168.019 10.68 167.758 10.472 167.438 10.312C167.118 10.152 166.739 10.072 166.302 10.072C165.886 10.072 165.523 10.152 165.214 10.312C164.904 10.472 164.643 10.6747 164.43 10.92C164.227 11.1653 164.067 11.4427 163.95 11.752C163.843 12.0507 163.784 12.3493 163.774 12.648H168.846ZM179.506 17.192C178.93 17.192 178.402 17.0907 177.922 16.888C177.453 16.6747 177.048 16.3867 176.706 16.024C176.376 15.6613 176.114 15.2347 175.922 14.744C175.741 14.2427 175.65 13.704 175.65 13.128C175.65 12.552 175.741 12.0187 175.922 11.528C176.114 11.0373 176.376 10.6107 176.706 10.248C177.048 9.88533 177.453 9.60267 177.922 9.4C178.402 9.18667 178.93 9.08 179.506 9.08C180.21 9.08 180.781 9.208 181.218 9.464C181.666 9.72 182.04 10.04 182.338 10.424L181.538 11.16C181.282 10.808 180.989 10.552 180.658 10.392C180.338 10.232 179.976 10.152 179.57 10.152C179.154 10.152 178.781 10.2267 178.45 10.376C178.13 10.5253 177.853 10.7333 177.618 11C177.384 11.2667 177.202 11.5813 177.074 11.944C176.957 12.3067 176.898 12.7013 176.898 13.128C176.898 13.5547 176.957 13.9547 177.074 14.328C177.202 14.6907 177.384 15.0053 177.618 15.272C177.853 15.5387 178.13 15.7467 178.45 15.896C178.781 16.0453 179.154 16.12 179.57 16.12C180.381 16.12 181.037 15.784 181.538 15.112L182.338 15.848C182.04 16.232 181.666 16.552 181.218 16.808C180.781 17.064 180.21 17.192 179.506 17.192ZM184.02 17V9.272H188.276C188.959 9.272 189.492 9.45867 189.876 9.832C190.26 10.1947 190.452 10.6693 190.452 11.256C190.452 11.7253 190.324 12.1093 190.068 12.408C189.823 12.7067 189.535 12.9093 189.204 13.016C189.396 13.0693 189.578 13.1547 189.748 13.272C189.919 13.3893 190.068 13.5333 190.196 13.704C190.324 13.8747 190.426 14.0613 190.5 14.264C190.575 14.4667 190.612 14.68 190.612 14.904C190.612 15.5333 190.415 16.04 190.02 16.424C189.626 16.808 189.071 17 188.356 17H184.02ZM188.116 15.944C188.5 15.944 188.804 15.8427 189.028 15.64C189.252 15.4267 189.364 15.1333 189.364 14.76C189.364 14.4507 189.258 14.1733 189.044 13.928C188.831 13.6827 188.522 13.56 188.116 13.56H185.22V15.944H188.116ZM188.068 12.504C188.442 12.504 188.724 12.4027 188.916 12.2C189.119 11.9973 189.22 11.7413 189.22 11.432C189.22 11.0907 189.119 10.824 188.916 10.632C188.724 10.4293 188.442 10.328 188.068 10.328H185.22V12.504H188.068ZM196.256 17.192C195.669 17.192 195.136 17.0853 194.656 16.872C194.186 16.6587 193.786 16.3707 193.456 16.008C193.125 15.6347 192.869 15.2027 192.688 14.712C192.517 14.2213 192.432 13.6933 192.432 13.128C192.432 12.5733 192.517 12.0507 192.688 11.56C192.869 11.0587 193.125 10.6267 193.456 10.264C193.786 9.90133 194.186 9.61333 194.656 9.4C195.136 9.18667 195.669 9.08 196.256 9.08C196.842 9.08 197.37 9.18667 197.84 9.4C198.32 9.61333 198.725 9.90133 199.056 10.264C199.386 10.6267 199.637 11.0587 199.808 11.56C199.989 12.0507 200.08 12.5733 200.08 13.128C200.08 13.6933 199.989 14.2213 199.808 14.712C199.637 15.2027 199.386 15.6347 199.056 16.008C198.725 16.3707 198.32 16.6587 197.84 16.872C197.37 17.0853 196.842 17.192 196.256 17.192ZM196.256 16.12C196.672 16.12 197.034 16.04 197.344 15.88C197.664 15.7093 197.93 15.4907 198.144 15.224C198.368 14.9467 198.533 14.6267 198.64 14.264C198.757 13.9013 198.816 13.5227 198.816 13.128C198.816 12.7333 198.757 12.36 198.64 12.008C198.533 11.6453 198.368 11.3307 198.144 11.064C197.93 10.7867 197.664 10.568 197.344 10.408C197.034 10.2373 196.672 10.152 196.256 10.152C195.84 10.152 195.472 10.2373 195.152 10.408C194.832 10.568 194.56 10.7867 194.336 11.064C194.122 11.3307 193.957 11.6453 193.84 12.008C193.733 12.36 193.68 12.7333 193.68 13.128C193.68 13.5227 193.733 13.9013 193.84 14.264C193.957 14.6267 194.122 14.9467 194.336 15.224C194.56 15.4907 194.832 15.7093 195.152 15.88C195.472 16.04 195.84 16.12 196.256 16.12ZM205.412 16.12C205.828 16.12 206.191 16.04 206.5 15.88C206.82 15.7093 207.087 15.4907 207.3 15.224C207.524 14.9467 207.689 14.6267 207.796 14.264C207.913 13.9013 207.972 13.5173 207.972 13.112C207.972 12.728 207.913 12.36 207.796 12.008C207.689 11.6453 207.524 11.3307 207.3 11.064C207.087 10.7867 206.82 10.568 206.5 10.408C206.191 10.2373 205.828 10.152 205.412 10.152C204.996 10.152 204.628 10.2373 204.308 10.408C203.988 10.568 203.716 10.7867 203.492 11.064C203.279 11.3307 203.113 11.6453 202.996 12.008C202.889 12.36 202.836 12.728 202.836 13.112C202.836 13.5173 202.889 13.9013 202.996 14.264C203.113 14.6267 203.279 14.9467 203.492 15.224C203.716 15.4907 203.988 15.7093 204.308 15.88C204.628 16.04 204.996 16.12 205.412 16.12ZM205.412 17.192C204.815 17.192 204.281 17.0853 203.812 16.872C203.343 16.648 202.943 16.3387 202.612 15.944C202.281 15.5493 202.025 15.0853 201.844 14.552C201.673 14.008 201.588 13.416 201.588 12.776C201.588 11.8373 201.673 11.032 201.844 10.36C202.015 9.67733 202.265 9.112 202.596 8.664C202.937 8.216 203.359 7.86933 203.86 7.624C204.372 7.368 204.964 7.19733 205.636 7.112C206.063 7.048 206.415 6.98933 206.692 6.936C206.969 6.872 207.188 6.808 207.348 6.744C207.519 6.68 207.636 6.616 207.7 6.552C207.775 6.488 207.812 6.41333 207.812 6.328H208.98C208.98 6.648 208.884 6.91467 208.692 7.128C208.5 7.33067 208.255 7.496 207.956 7.624C207.657 7.752 207.327 7.85333 206.964 7.928C206.612 8.00267 206.271 8.06133 205.94 8.104C205.364 8.18933 204.884 8.312 204.5 8.472C204.116 8.632 203.801 8.824 203.556 9.048C203.311 9.272 203.119 9.528 202.98 9.816C202.852 10.0933 202.756 10.3973 202.692 10.728C202.831 10.504 202.996 10.296 203.188 10.104C203.38 9.90133 203.599 9.72533 203.844 9.576C204.089 9.42667 204.356 9.30933 204.644 9.224C204.943 9.128 205.263 9.08 205.604 9.08C206.148 9.08 206.644 9.18667 207.092 9.4C207.54 9.61333 207.919 9.90667 208.228 10.28C208.548 10.6427 208.793 11.0693 208.964 11.56C209.135 12.0507 209.22 12.568 209.22 13.112C209.22 13.6667 209.135 14.1947 208.964 14.696C208.793 15.1867 208.543 15.6187 208.212 15.992C207.881 16.3547 207.481 16.648 207.012 16.872C206.543 17.0853 206.009 17.192 205.412 17.192ZM214.646 17.192C214.06 17.192 213.526 17.0853 213.046 16.872C212.577 16.6587 212.177 16.3707 211.846 16.008C211.516 15.6347 211.26 15.2027 211.078 14.712C210.908 14.2213 210.822 13.6933 210.822 13.128C210.822 12.5733 210.908 12.0507 211.078 11.56C211.26 11.0587 211.516 10.6267 211.846 10.264C212.177 9.90133 212.577 9.61333 213.046 9.4C213.526 9.18667 214.06 9.08 214.646 9.08C215.233 9.08 215.761 9.18667 216.23 9.4C216.71 9.61333 217.116 9.90133 217.446 10.264C217.777 10.6267 218.028 11.0587 218.198 11.56C218.38 12.0507 218.47 12.5733 218.47 13.128C218.47 13.6933 218.38 14.2213 218.198 14.712C218.028 15.2027 217.777 15.6347 217.446 16.008C217.116 16.3707 216.71 16.6587 216.23 16.872C215.761 17.0853 215.233 17.192 214.646 17.192ZM214.646 16.12C215.062 16.12 215.425 16.04 215.734 15.88C216.054 15.7093 216.321 15.4907 216.534 15.224C216.758 14.9467 216.924 14.6267 217.03 14.264C217.148 13.9013 217.206 13.5227 217.206 13.128C217.206 12.7333 217.148 12.36 217.03 12.008C216.924 11.6453 216.758 11.3307 216.534 11.064C216.321 10.7867 216.054 10.568 215.734 10.408C215.425 10.2373 215.062 10.152 214.646 10.152C214.23 10.152 213.862 10.2373 213.542 10.408C213.222 10.568 212.95 10.7867 212.726 11.064C212.513 11.3307 212.348 11.6453 212.23 12.008C212.124 12.36 212.07 12.7333 212.07 13.128C212.07 13.5227 212.124 13.9013 212.23 14.264C212.348 14.6267 212.513 14.9467 212.726 15.224C212.95 15.4907 213.222 15.7093 213.542 15.88C213.862 16.04 214.23 16.12 214.646 16.12ZM219.515 16.008C219.696 15.976 219.856 15.912 219.995 15.816C220.144 15.72 220.277 15.5653 220.395 15.352C220.523 15.1387 220.635 14.8507 220.731 14.488C220.827 14.1253 220.912 13.656 220.987 13.08L221.483 9.272H226.859V15.944H227.755V18.968H226.555V17H220.715V18.968H219.515V16.008ZM222.187 13.224C222.091 13.96 221.947 14.5413 221.755 14.968C221.573 15.3947 221.344 15.72 221.067 15.944H225.659V10.328H222.539L222.187 13.224ZM229.395 17V9.272H230.595V12.488H234.627V9.272H235.827V17H234.627V13.544H230.595V17H229.395ZM241.599 17.192C241.013 17.192 240.479 17.0853 239.999 16.872C239.53 16.6587 239.13 16.3707 238.799 16.008C238.469 15.6347 238.213 15.2027 238.031 14.712C237.861 14.2213 237.775 13.6933 237.775 13.128C237.775 12.5733 237.861 12.0507 238.031 11.56C238.213 11.0587 238.469 10.6267 238.799 10.264C239.13 9.90133 239.53 9.61333 239.999 9.4C240.479 9.18667 241.013 9.08 241.599 9.08C242.186 9.08 242.714 9.18667 243.183 9.4C243.663 9.61333 244.069 9.90133 244.399 10.264C244.73 10.6267 244.981 11.0587 245.151 11.56C245.333 12.0507 245.423 12.5733 245.423 13.128C245.423 13.6933 245.333 14.2213 245.151 14.712C244.981 15.2027 244.73 15.6347 244.399 16.008C244.069 16.3707 243.663 16.6587 243.183 16.872C242.714 17.0853 242.186 17.192 241.599 17.192ZM241.599 16.12C242.015 16.12 242.378 16.04 242.687 15.88C243.007 15.7093 243.274 15.4907 243.487 15.224C243.711 14.9467 243.877 14.6267 243.983 14.264C244.101 13.9013 244.159 13.5227 244.159 13.128C244.159 12.7333 244.101 12.36 243.983 12.008C243.877 11.6453 243.711 11.3307 243.487 11.064C243.274 10.7867 243.007 10.568 242.687 10.408C242.378 10.2373 242.015 10.152 241.599 10.152C241.183 10.152 240.815 10.2373 240.495 10.408C240.175 10.568 239.903 10.7867 239.679 11.064C239.466 11.3307 239.301 11.6453 239.183 12.008C239.077 12.36 239.023 12.7333 239.023 13.128C239.023 13.5227 239.077 13.9013 239.183 14.264C239.301 14.6267 239.466 14.9467 239.679 15.224C239.903 15.4907 240.175 15.7093 240.495 15.88C240.815 16.04 241.183 16.12 241.599 16.12ZM254.881 17.192C254.294 17.192 253.761 17.0853 253.281 16.872C252.811 16.6587 252.411 16.3707 252.081 16.008C251.75 15.6347 251.494 15.2027 251.313 14.712C251.142 14.2213 251.057 13.6933 251.057 13.128C251.057 12.5733 251.142 12.0507 251.313 11.56C251.494 11.0587 251.75 10.6267 252.081 10.264C252.411 9.90133 252.811 9.61333 253.281 9.4C253.761 9.18667 254.294 9.08 254.881 9.08C255.467 9.08 255.995 9.18667 256.465 9.4C256.945 9.61333 257.35 9.90133 257.681 10.264C258.011 10.6267 258.262 11.0587 258.433 11.56C258.614 12.0507 258.705 12.5733 258.705 13.128C258.705 13.6933 258.614 14.2213 258.433 14.712C258.262 15.2027 258.011 15.6347 257.681 16.008C257.35 16.3707 256.945 16.6587 256.465 16.872C255.995 17.0853 255.467 17.192 254.881 17.192ZM254.881 16.12C255.297 16.12 255.659 16.04 255.969 15.88C256.289 15.7093 256.555 15.4907 256.769 15.224C256.993 14.9467 257.158 14.6267 257.265 14.264C257.382 13.9013 257.441 13.5227 257.441 13.128C257.441 12.7333 257.382 12.36 257.265 12.008C257.158 11.6453 256.993 11.3307 256.769 11.064C256.555 10.7867 256.289 10.568 255.969 10.408C255.659 10.2373 255.297 10.152 254.881 10.152C254.465 10.152 254.097 10.2373 253.777 10.408C253.457 10.568 253.185 10.7867 252.961 11.064C252.747 11.3307 252.582 11.6453 252.465 12.008C252.358 12.36 252.305 12.7333 252.305 13.128C252.305 13.5227 252.358 13.9013 252.465 14.264C252.582 14.6267 252.747 14.9467 252.961 15.224C253.185 15.4907 253.457 15.7093 253.777 15.88C254.097 16.04 254.465 16.12 254.881 16.12ZM262.069 17V10.328H259.829V9.272H265.525V10.328H263.269V17H262.069ZM271.223 17V9.272H272.423V12.488H276.455V9.272H277.655V17H276.455V13.544H272.423V17H271.223ZM284.884 17V16.12C284.233 16.8347 283.38 17.192 282.324 17.192C281.993 17.192 281.668 17.1387 281.348 17.032C281.028 16.9253 280.74 16.7653 280.484 16.552C280.228 16.328 280.02 16.056 279.86 15.736C279.7 15.416 279.62 15.048 279.62 14.632C279.62 14.2053 279.7 13.832 279.86 13.512C280.02 13.192 280.228 12.9253 280.484 12.712C280.74 12.4987 281.028 12.344 281.348 12.248C281.668 12.1413 281.993 12.088 282.324 12.088C282.857 12.088 283.337 12.1733 283.764 12.344C284.201 12.5147 284.574 12.7813 284.884 13.144V11.752C284.884 11.2293 284.697 10.8293 284.324 10.552C283.961 10.264 283.497 10.12 282.932 10.12C282.025 10.12 281.236 10.4773 280.564 11.192L280.004 10.36C280.825 9.50667 281.854 9.08 283.092 9.08C283.497 9.08 283.881 9.128 284.244 9.224C284.606 9.32 284.921 9.47467 285.188 9.688C285.465 9.89067 285.684 10.1573 285.844 10.488C286.004 10.8187 286.084 11.2187 286.084 11.688V17H284.884ZM282.756 16.328C283.182 16.328 283.582 16.248 283.956 16.088C284.34 15.928 284.649 15.688 284.884 15.368V13.912C284.649 13.592 284.34 13.352 283.956 13.192C283.582 13.032 283.182 12.952 282.756 12.952C282.19 12.952 281.732 13.112 281.38 13.432C281.028 13.7413 280.852 14.1467 280.852 14.648C280.852 15.1387 281.028 15.544 281.38 15.864C281.732 16.1733 282.19 16.328 282.756 16.328ZM293.497 17L291.177 13.832L288.857 17H287.481L290.441 13.032L287.641 9.272H289.033L291.177 12.216L293.321 9.272H294.713L291.913 13.032L294.889 17H293.497ZM299.053 17.192C298.466 17.192 297.933 17.0853 297.453 16.872C296.983 16.6587 296.583 16.3707 296.253 16.008C295.922 15.6347 295.666 15.2027 295.485 14.712C295.314 14.2213 295.229 13.6933 295.229 13.128C295.229 12.5733 295.314 12.0507 295.485 11.56C295.666 11.0587 295.922 10.6267 296.253 10.264C296.583 9.90133 296.983 9.61333 297.453 9.4C297.933 9.18667 298.466 9.08 299.053 9.08C299.639 9.08 300.167 9.18667 300.637 9.4C301.117 9.61333 301.522 9.90133 301.853 10.264C302.183 10.6267 302.434 11.0587 302.605 11.56C302.786 12.0507 302.877 12.5733 302.877 13.128C302.877 13.6933 302.786 14.2213 302.605 14.712C302.434 15.2027 302.183 15.6347 301.853 16.008C301.522 16.3707 301.117 16.6587 300.637 16.872C300.167 17.0853 299.639 17.192 299.053 17.192ZM299.053 16.12C299.469 16.12 299.831 16.04 300.141 15.88C300.461 15.7093 300.727 15.4907 300.941 15.224C301.165 14.9467 301.33 14.6267 301.437 14.264C301.554 13.9013 301.613 13.5227 301.613 13.128C301.613 12.7333 301.554 12.36 301.437 12.008C301.33 11.6453 301.165 11.3307 300.941 11.064C300.727 10.7867 300.461 10.568 300.141 10.408C299.831 10.2373 299.469 10.152 299.053 10.152C298.637 10.152 298.269 10.2373 297.949 10.408C297.629 10.568 297.357 10.7867 297.133 11.064C296.919 11.3307 296.754 11.6453 296.637 12.008C296.53 12.36 296.477 12.7333 296.477 13.128C296.477 13.5227 296.53 13.9013 296.637 14.264C296.754 14.6267 296.919 14.9467 297.133 15.224C297.357 15.4907 297.629 15.7093 297.949 15.88C298.269 16.04 298.637 16.12 299.053 16.12ZM303.921 16.008C304.102 15.976 304.262 15.912 304.401 15.816C304.55 15.72 304.683 15.5653 304.801 15.352C304.929 15.1387 305.041 14.8507 305.137 14.488C305.233 14.1253 305.318 13.656 305.393 13.08L305.889 9.272H311.265V15.944H312.161V18.968H310.961V17H305.121V18.968H303.921V16.008ZM306.593 13.224C306.497 13.96 306.353 14.5413 306.161 14.968C305.979 15.3947 305.75 15.72 305.473 15.944H310.065V10.328H306.945L306.593 13.224ZM317.178 17.192C316.591 17.192 316.058 17.0853 315.578 16.872C315.108 16.6587 314.708 16.3707 314.378 16.008C314.047 15.6347 313.791 15.2027 313.61 14.712C313.439 14.2213 313.354 13.6933 313.354 13.128C313.354 12.5733 313.439 12.0507 313.61 11.56C313.791 11.0587 314.047 10.6267 314.378 10.264C314.708 9.90133 315.108 9.61333 315.578 9.4C316.058 9.18667 316.591 9.08 317.178 9.08C317.764 9.08 318.292 9.18667 318.762 9.4C319.242 9.61333 319.647 9.90133 319.978 10.264C320.308 10.6267 320.559 11.0587 320.73 11.56C320.911 12.0507 321.002 12.5733 321.002 13.128C321.002 13.6933 320.911 14.2213 320.73 14.712C320.559 15.2027 320.308 15.6347 319.978 16.008C319.647 16.3707 319.242 16.6587 318.762 16.872C318.292 17.0853 317.764 17.192 317.178 17.192ZM317.178 16.12C317.594 16.12 317.956 16.04 318.266 15.88C318.586 15.7093 318.852 15.4907 319.066 15.224C319.29 14.9467 319.455 14.6267 319.562 14.264C319.679 13.9013 319.738 13.5227 319.738 13.128C319.738 12.7333 319.679 12.36 319.562 12.008C319.455 11.6453 319.29 11.3307 319.066 11.064C318.852 10.7867 318.586 10.568 318.266 10.408C317.956 10.2373 317.594 10.152 317.178 10.152C316.762 10.152 316.394 10.2373 316.074 10.408C315.754 10.568 315.482 10.7867 315.258 11.064C315.044 11.3307 314.879 11.6453 314.762 12.008C314.655 12.36 314.602 12.7333 314.602 13.128C314.602 13.5227 314.655 13.9013 314.762 14.264C314.879 14.6267 315.044 14.9467 315.258 15.224C315.482 15.4907 315.754 15.7093 316.074 15.88C316.394 16.04 316.762 16.12 317.178 16.12ZM328.222 17L325.438 13.528L324.158 14.792V17H322.958V9.272H324.158V13.384L328.222 9.272H329.742L326.318 12.776L329.758 17H328.222ZM331.321 14.008L331.065 6.328H332.569L332.313 14.008H331.321ZM331.817 17.16C331.571 17.16 331.363 17.0747 331.193 16.904C331.022 16.7227 330.937 16.5147 330.937 16.28C330.937 16.0347 331.022 15.8267 331.193 15.656C331.363 15.4853 331.571 15.4 331.817 15.4C332.062 15.4 332.27 15.4853 332.441 15.656C332.611 15.8267 332.697 16.0347 332.697 16.28C332.697 16.5147 332.611 16.7227 332.441 16.904C332.27 17.0747 332.062 17.16 331.817 17.16ZM346.605 17V12.104H340.365V17H339.037V6.328H340.365V10.92H346.605V6.328H347.933V17H346.605ZM355.212 17V16.12C354.561 16.8347 353.708 17.192 352.652 17.192C352.321 17.192 351.996 17.1387 351.676 17.032C351.356 16.9253 351.068 16.7653 350.812 16.552C350.556 16.328 350.348 16.056 350.188 15.736C350.028 15.416 349.948 15.048 349.948 14.632C349.948 14.2053 350.028 13.832 350.188 13.512C350.348 13.192 350.556 12.9253 350.812 12.712C351.068 12.4987 351.356 12.344 351.676 12.248C351.996 12.1413 352.321 12.088 352.652 12.088C353.185 12.088 353.665 12.1733 354.092 12.344C354.529 12.5147 354.902 12.7813 355.212 13.144V11.752C355.212 11.2293 355.025 10.8293 354.652 10.552C354.289 10.264 353.825 10.12 353.26 10.12C352.353 10.12 351.564 10.4773 350.892 11.192L350.332 10.36C351.153 9.50667 352.182 9.08 353.42 9.08C353.825 9.08 354.209 9.128 354.572 9.224C354.934 9.32 355.249 9.47467 355.516 9.688C355.793 9.89067 356.012 10.1573 356.172 10.488C356.332 10.8187 356.412 11.2187 356.412 11.688V17H355.212ZM353.084 16.328C353.51 16.328 353.91 16.248 354.284 16.088C354.668 15.928 354.977 15.688 355.212 15.368V13.912C354.977 13.592 354.668 13.352 354.284 13.192C353.91 13.032 353.51 12.952 353.084 12.952C352.518 12.952 352.06 13.112 351.708 13.432C351.356 13.7413 351.18 14.1467 351.18 14.648C351.18 15.1387 351.356 15.544 351.708 15.864C352.06 16.1733 352.518 16.328 353.084 16.328ZM357.841 17L361.281 12.776L357.857 9.272H359.377L362.705 12.68V9.272H363.905V12.664L367.233 9.272H368.753L365.313 12.776L368.769 17H367.233L364.449 13.528L363.905 14.072V17H362.705V14.072L362.161 13.528L359.377 17H357.841ZM376.88 17V10.936L374.368 17H373.92L371.392 10.936V17H370.192V9.272H371.776L374.144 15L376.48 9.272H378.08V17H376.88ZM380.473 17V9.272H381.673V15.176L385.721 9.272H386.905V17H385.705V10.984L381.625 17H380.473ZM390.71 17V10.328H388.47V9.272H394.166V10.328H391.91V17H390.71ZM399.227 17.192C398.651 17.192 398.123 17.096 397.643 16.904C397.163 16.7013 396.747 16.424 396.395 16.072C396.054 15.7093 395.782 15.2827 395.579 14.792C395.387 14.2907 395.291 13.736 395.291 13.128C395.291 12.5733 395.387 12.0507 395.579 11.56C395.771 11.0587 396.032 10.6267 396.363 10.264C396.704 9.90133 397.104 9.61333 397.563 9.4C398.032 9.18667 398.544 9.08 399.099 9.08C399.686 9.08 400.208 9.18667 400.667 9.4C401.126 9.61333 401.515 9.90667 401.835 10.28C402.155 10.6533 402.395 11.096 402.555 11.608C402.726 12.1093 402.811 12.648 402.811 13.224V13.528H396.555C396.576 13.8907 396.656 14.2373 396.795 14.568C396.934 14.888 397.12 15.1707 397.355 15.416C397.6 15.6507 397.888 15.8427 398.219 15.992C398.55 16.1307 398.923 16.2 399.339 16.2C399.787 16.2 400.219 16.1147 400.635 15.944C401.051 15.7733 401.414 15.5333 401.723 15.224L402.299 16.008C401.915 16.392 401.467 16.6853 400.955 16.888C400.443 17.0907 399.867 17.192 399.227 17.192ZM401.627 12.648C401.627 12.36 401.574 12.0667 401.467 11.768C401.371 11.4587 401.216 11.1813 401.003 10.936C400.8 10.68 400.539 10.472 400.219 10.312C399.899 10.152 399.52 10.072 399.083 10.072C398.667 10.072 398.304 10.152 397.995 10.312C397.686 10.472 397.424 10.6747 397.211 10.92C397.008 11.1653 396.848 11.4427 396.731 11.752C396.624 12.0507 396.566 12.3493 396.555 12.648H401.627ZM408.88 17V9.272H410.08V12.488H414.112V9.272H415.312V17H414.112V13.544H410.08V17H408.88ZM422.54 17V16.12C421.889 16.8347 421.036 17.192 419.98 17.192C419.649 17.192 419.324 17.1387 419.004 17.032C418.684 16.9253 418.396 16.7653 418.14 16.552C417.884 16.328 417.676 16.056 417.516 15.736C417.356 15.416 417.276 15.048 417.276 14.632C417.276 14.2053 417.356 13.832 417.516 13.512C417.676 13.192 417.884 12.9253 418.14 12.712C418.396 12.4987 418.684 12.344 419.004 12.248C419.324 12.1413 419.649 12.088 419.98 12.088C420.513 12.088 420.993 12.1733 421.42 12.344C421.857 12.5147 422.23 12.7813 422.54 13.144V11.752C422.54 11.2293 422.353 10.8293 421.98 10.552C421.617 10.264 421.153 10.12 420.588 10.12C419.681 10.12 418.892 10.4773 418.22 11.192L417.66 10.36C418.481 9.50667 419.51 9.08 420.748 9.08C421.153 9.08 421.537 9.128 421.9 9.224C422.262 9.32 422.577 9.47467 422.844 9.688C423.121 9.89067 423.34 10.1573 423.5 10.488C423.66 10.8187 423.74 11.2187 423.74 11.688V17H422.54ZM420.412 16.328C420.838 16.328 421.238 16.248 421.612 16.088C421.996 15.928 422.305 15.688 422.54 15.368V13.912C422.305 13.592 421.996 13.352 421.612 13.192C421.238 13.032 420.838 12.952 420.412 12.952C419.846 12.952 419.388 13.112 419.036 13.432C418.684 13.7413 418.508 14.1467 418.508 14.648C418.508 15.1387 418.684 15.544 419.036 15.864C419.388 16.1733 419.846 16.328 420.412 16.328ZM433.678 17.192C433.102 17.192 432.574 17.0907 432.094 16.888C431.625 16.6747 431.22 16.3867 430.878 16.024C430.548 15.6613 430.286 15.2347 430.094 14.744C429.913 14.2427 429.822 13.704 429.822 13.128C429.822 12.552 429.913 12.0187 430.094 11.528C430.286 11.0373 430.548 10.6107 430.878 10.248C431.22 9.88533 431.625 9.60267 432.094 9.4C432.574 9.18667 433.102 9.08 433.678 9.08C434.382 9.08 434.953 9.208 435.39 9.464C435.838 9.72 436.212 10.04 436.51 10.424L435.71 11.16C435.454 10.808 435.161 10.552 434.83 10.392C434.51 10.232 434.148 10.152 433.742 10.152C433.326 10.152 432.953 10.2267 432.622 10.376C432.302 10.5253 432.025 10.7333 431.79 11C431.556 11.2667 431.374 11.5813 431.246 11.944C431.129 12.3067 431.07 12.7013 431.07 13.128C431.07 13.5547 431.129 13.9547 431.246 14.328C431.374 14.6907 431.556 15.0053 431.79 15.272C432.025 15.5387 432.302 15.7467 432.622 15.896C432.953 16.0453 433.326 16.12 433.742 16.12C434.553 16.12 435.209 15.784 435.71 15.112L436.51 15.848C436.212 16.232 435.838 16.552 435.39 16.808C434.953 17.064 434.382 17.192 433.678 17.192ZM441.68 17.192C441.104 17.192 440.576 17.096 440.096 16.904C439.616 16.7013 439.2 16.424 438.848 16.072C438.507 15.7093 438.235 15.2827 438.032 14.792C437.84 14.2907 437.744 13.736 437.744 13.128C437.744 12.5733 437.84 12.0507 438.032 11.56C438.224 11.0587 438.486 10.6267 438.816 10.264C439.158 9.90133 439.558 9.61333 440.016 9.4C440.486 9.18667 440.998 9.08 441.552 9.08C442.139 9.08 442.662 9.18667 443.12 9.4C443.579 9.61333 443.968 9.90667 444.288 10.28C444.608 10.6533 444.848 11.096 445.008 11.608C445.179 12.1093 445.264 12.648 445.264 13.224V13.528H439.008C439.03 13.8907 439.11 14.2373 439.248 14.568C439.387 14.888 439.574 15.1707 439.808 15.416C440.054 15.6507 440.342 15.8427 440.672 15.992C441.003 16.1307 441.376 16.2 441.792 16.2C442.24 16.2 442.672 16.1147 443.088 15.944C443.504 15.7733 443.867 15.5333 444.176 15.224L444.752 16.008C444.368 16.392 443.92 16.6853 443.408 16.888C442.896 17.0907 442.32 17.192 441.68 17.192ZM444.08 12.648C444.08 12.36 444.027 12.0667 443.92 11.768C443.824 11.4587 443.67 11.1813 443.456 10.936C443.254 10.68 442.992 10.472 442.672 10.312C442.352 10.152 441.974 10.072 441.536 10.072C441.12 10.072 440.758 10.152 440.448 10.312C440.139 10.472 439.878 10.6747 439.664 10.92C439.462 11.1653 439.302 11.4427 439.184 11.752C439.078 12.0507 439.019 12.3493 439.008 12.648H444.08ZM451.016 17.192C450.482 17.192 449.992 17.0747 449.544 16.84C449.096 16.6053 448.717 16.2693 448.408 15.832V19.944H447.208V9.272H448.408V10.424C448.685 10.0293 449.053 9.70933 449.512 9.464C449.97 9.208 450.472 9.08 451.016 9.08C451.528 9.08 451.992 9.176 452.408 9.368C452.834 9.54933 453.197 9.816 453.496 10.168C453.805 10.5093 454.04 10.9307 454.2 11.432C454.37 11.9333 454.456 12.4987 454.456 13.128C454.456 13.7573 454.37 14.3227 454.2 14.824C454.04 15.3253 453.805 15.752 453.496 16.104C453.197 16.456 452.834 16.728 452.408 16.92C451.992 17.1013 451.528 17.192 451.016 17.192ZM450.712 16.12C451.096 16.12 451.442 16.0453 451.752 15.896C452.061 15.7467 452.322 15.5387 452.536 15.272C452.749 15.0053 452.909 14.6907 453.016 14.328C453.133 13.9547 453.192 13.5547 453.192 13.128C453.192 12.7013 453.133 12.3067 453.016 11.944C452.909 11.5813 452.749 11.2667 452.536 11C452.322 10.7333 452.061 10.5253 451.752 10.376C451.442 10.2267 451.096 10.152 450.712 10.152C450.232 10.152 449.778 10.2747 449.352 10.52C448.936 10.7547 448.621 11.0427 448.408 11.384V14.872C448.621 15.2133 448.936 15.5067 449.352 15.752C449.778 15.9973 450.232 16.12 450.712 16.12ZM455.452 16.008C455.633 15.976 455.793 15.912 455.932 15.816C456.081 15.72 456.215 15.5653 456.332 15.352C456.46 15.1387 456.572 14.8507 456.668 14.488C456.764 14.1253 456.849 13.656 456.924 13.08L457.42 9.272H462.796V15.944H463.692V18.968H462.492V17H456.652V18.968H455.452V16.008ZM458.124 13.224C458.028 13.96 457.884 14.5413 457.692 14.968C457.511 15.3947 457.281 15.72 457.004 15.944H461.596V10.328H458.476L458.124 13.224ZM468.821 17.192C468.245 17.192 467.717 17.096 467.237 16.904C466.757 16.7013 466.341 16.424 465.989 16.072C465.647 15.7093 465.375 15.2827 465.173 14.792C464.981 14.2907 464.885 13.736 464.885 13.128C464.885 12.5733 464.981 12.0507 465.173 11.56C465.365 11.0587 465.626 10.6267 465.957 10.264C466.298 9.90133 466.698 9.61333 467.157 9.4C467.626 9.18667 468.138 9.08 468.693 9.08C469.279 9.08 469.802 9.18667 470.261 9.4C470.719 9.61333 471.109 9.90667 471.429 10.28C471.749 10.6533 471.989 11.096 472.149 11.608C472.319 12.1093 472.405 12.648 472.405 13.224V13.528H466.149C466.17 13.8907 466.25 14.2373 466.389 14.568C466.527 14.888 466.714 15.1707 466.949 15.416C467.194 15.6507 467.482 15.8427 467.813 15.992C468.143 16.1307 468.517 16.2 468.933 16.2C469.381 16.2 469.813 16.1147 470.229 15.944C470.645 15.7733 471.007 15.5333 471.317 15.224L471.893 16.008C471.509 16.392 471.061 16.6853 470.549 16.888C470.037 17.0907 469.461 17.192 468.821 17.192ZM471.221 12.648C471.221 12.36 471.167 12.0667 471.061 11.768C470.965 11.4587 470.81 11.1813 470.597 10.936C470.394 10.68 470.133 10.472 469.813 10.312C469.493 10.152 469.114 10.072 468.677 10.072C468.261 10.072 467.898 10.152 467.589 10.312C467.279 10.472 467.018 10.6747 466.805 10.92C466.602 11.1653 466.442 11.4427 466.325 11.752C466.218 12.0507 466.159 12.3493 466.149 12.648H471.221ZM475.388 9.272V11.448C475.388 11.8107 475.431 12.1093 475.516 12.344C475.602 12.5787 475.724 12.7653 475.884 12.904C476.055 13.0427 476.263 13.144 476.508 13.208C476.754 13.2613 477.036 13.288 477.356 13.288C477.762 13.288 478.146 13.2507 478.508 13.176C478.871 13.0907 479.17 12.9893 479.404 12.872V9.272H480.604V17H479.404V13.848C479.116 13.9973 478.764 14.12 478.348 14.216C477.932 14.312 477.5 14.36 477.052 14.36C476.039 14.36 475.308 14.1573 474.86 13.752C474.412 13.3467 474.188 12.7013 474.188 11.816V9.272H475.388ZM488.269 17L485.485 13.528L484.205 14.792V17H483.005V9.272H484.205V13.384L488.269 9.272H489.789L486.365 12.776L489.805 17H488.269ZM494.553 17.192C493.966 17.192 493.433 17.0853 492.953 16.872C492.483 16.6587 492.083 16.3707 491.753 16.008C491.422 15.6347 491.166 15.2027 490.985 14.712C490.814 14.2213 490.729 13.6933 490.729 13.128C490.729 12.5733 490.814 12.0507 490.985 11.56C491.166 11.0587 491.422 10.6267 491.753 10.264C492.083 9.90133 492.483 9.61333 492.953 9.4C493.433 9.18667 493.966 9.08 494.553 9.08C495.139 9.08 495.667 9.18667 496.137 9.4C496.617 9.61333 497.022 9.90133 497.353 10.264C497.683 10.6267 497.934 11.0587 498.105 11.56C498.286 12.0507 498.377 12.5733 498.377 13.128C498.377 13.6933 498.286 14.2213 498.105 14.712C497.934 15.2027 497.683 15.6347 497.353 16.008C497.022 16.3707 496.617 16.6587 496.137 16.872C495.667 17.0853 495.139 17.192 494.553 17.192ZM494.553 16.12C494.969 16.12 495.331 16.04 495.641 15.88C495.961 15.7093 496.227 15.4907 496.441 15.224C496.665 14.9467 496.83 14.6267 496.937 14.264C497.054 13.9013 497.113 13.5227 497.113 13.128C497.113 12.7333 497.054 12.36 496.937 12.008C496.83 11.6453 496.665 11.3307 496.441 11.064C496.227 10.7867 495.961 10.568 495.641 10.408C495.331 10.2373 494.969 10.152 494.553 10.152C494.137 10.152 493.769 10.2373 493.449 10.408C493.129 10.568 492.857 10.7867 492.633 11.064C492.419 11.3307 492.254 11.6453 492.137 12.008C492.03 12.36 491.977 12.7333 491.977 13.128C491.977 13.5227 492.03 13.9013 492.137 14.264C492.254 14.6267 492.419 14.9467 492.633 15.224C492.857 15.4907 493.129 15.7093 493.449 15.88C493.769 16.04 494.137 16.12 494.553 16.12ZM526.699 16.616C526.699 17.1067 526.571 17.5653 526.315 17.992C526.069 18.4187 525.76 18.7653 525.387 19.032L524.795 18.536C525.051 18.3653 525.28 18.1413 525.483 17.864C525.685 17.5867 525.803 17.3147 525.835 17.048C525.792 17.0693 525.717 17.08 525.611 17.08C525.387 17.08 525.2 17.0053 525.051 16.856C524.912 16.7067 524.843 16.5093 524.843 16.264C524.843 16.0293 524.923 15.8267 525.083 15.656C525.243 15.4853 525.445 15.4 525.691 15.4C525.957 15.4 526.192 15.5067 526.395 15.72C526.597 15.9333 526.699 16.232 526.699 16.616ZM533.935 9.272V11.448C533.935 11.8107 533.978 12.1093 534.063 12.344C534.149 12.5787 534.271 12.7653 534.431 12.904C534.602 13.0427 534.81 13.144 535.055 13.208C535.301 13.2613 535.583 13.288 535.903 13.288C536.309 13.288 536.693 13.2507 537.055 13.176C537.418 13.0907 537.717 12.9893 537.951 12.872V9.272H539.151V17H537.951V13.848C537.663 13.9973 537.311 14.12 536.895 14.216C536.479 14.312 536.047 14.36 535.599 14.36C534.586 14.36 533.855 14.1573 533.407 13.752C532.959 13.3467 532.735 12.7013 532.735 11.816V9.272H533.935ZM542.96 17V10.328H540.72V9.272H546.416V10.328H544.16V17H542.96ZM551.365 17.192C550.778 17.192 550.245 17.0853 549.765 16.872C549.296 16.6587 548.896 16.3707 548.565 16.008C548.234 15.6347 547.978 15.2027 547.797 14.712C547.626 14.2213 547.541 13.6933 547.541 13.128C547.541 12.5733 547.626 12.0507 547.797 11.56C547.978 11.0587 548.234 10.6267 548.565 10.264C548.896 9.90133 549.296 9.61333 549.765 9.4C550.245 9.18667 550.778 9.08 551.365 9.08C551.952 9.08 552.48 9.18667 552.949 9.4C553.429 9.61333 553.834 9.90133 554.165 10.264C554.496 10.6267 554.746 11.0587 554.917 11.56C555.098 12.0507 555.189 12.5733 555.189 13.128C555.189 13.6933 555.098 14.2213 554.917 14.712C554.746 15.2027 554.496 15.6347 554.165 16.008C553.834 16.3707 553.429 16.6587 552.949 16.872C552.48 17.0853 551.952 17.192 551.365 17.192ZM551.365 16.12C551.781 16.12 552.144 16.04 552.453 15.88C552.773 15.7093 553.04 15.4907 553.253 15.224C553.477 14.9467 553.642 14.6267 553.749 14.264C553.866 13.9013 553.925 13.5227 553.925 13.128C553.925 12.7333 553.866 12.36 553.749 12.008C553.642 11.6453 553.477 11.3307 553.253 11.064C553.04 10.7867 552.773 10.568 552.453 10.408C552.144 10.2373 551.781 10.152 551.365 10.152C550.949 10.152 550.581 10.2373 550.261 10.408C549.941 10.568 549.669 10.7867 549.445 11.064C549.232 11.3307 549.066 11.6453 548.949 12.008C548.842 12.36 548.789 12.7333 548.789 13.128C548.789 13.5227 548.842 13.9013 548.949 14.264C549.066 14.6267 549.232 14.9467 549.445 15.224C549.669 15.4907 549.941 15.7093 550.261 15.88C550.581 16.04 550.949 16.12 551.365 16.12ZM560.521 16.12C560.937 16.12 561.3 16.04 561.609 15.88C561.929 15.7093 562.196 15.4907 562.409 15.224C562.633 14.9467 562.799 14.6267 562.905 14.264C563.023 13.9013 563.081 13.5173 563.081 13.112C563.081 12.728 563.023 12.36 562.905 12.008C562.799 11.6453 562.633 11.3307 562.409 11.064C562.196 10.7867 561.929 10.568 561.609 10.408C561.3 10.2373 560.937 10.152 560.521 10.152C560.105 10.152 559.737 10.2373 559.417 10.408C559.097 10.568 558.825 10.7867 558.601 11.064C558.388 11.3307 558.223 11.6453 558.105 12.008C557.999 12.36 557.945 12.728 557.945 13.112C557.945 13.5173 557.999 13.9013 558.105 14.264C558.223 14.6267 558.388 14.9467 558.601 15.224C558.825 15.4907 559.097 15.7093 559.417 15.88C559.737 16.04 560.105 16.12 560.521 16.12ZM560.521 17.192C559.924 17.192 559.391 17.0853 558.921 16.872C558.452 16.648 558.052 16.3387 557.721 15.944C557.391 15.5493 557.135 15.0853 556.953 14.552C556.783 14.008 556.697 13.416 556.697 12.776C556.697 11.8373 556.783 11.032 556.953 10.36C557.124 9.67733 557.375 9.112 557.705 8.664C558.047 8.216 558.468 7.86933 558.969 7.624C559.481 7.368 560.073 7.19733 560.745 7.112C561.172 7.048 561.524 6.98933 561.801 6.936C562.079 6.872 562.297 6.808 562.457 6.744C562.628 6.68 562.745 6.616 562.809 6.552C562.884 6.488 562.921 6.41333 562.921 6.328H564.089C564.089 6.648 563.993 6.91467 563.801 7.128C563.609 7.33067 563.364 7.496 563.065 7.624C562.767 7.752 562.436 7.85333 562.073 7.928C561.721 8.00267 561.38 8.06133 561.049 8.104C560.473 8.18933 559.993 8.312 559.609 8.472C559.225 8.632 558.911 8.824 558.665 9.048C558.42 9.272 558.228 9.528 558.089 9.816C557.961 10.0933 557.865 10.3973 557.801 10.728C557.94 10.504 558.105 10.296 558.297 10.104C558.489 9.90133 558.708 9.72533 558.953 9.576C559.199 9.42667 559.465 9.30933 559.753 9.224C560.052 9.128 560.372 9.08 560.713 9.08C561.257 9.08 561.753 9.18667 562.201 9.4C562.649 9.61333 563.028 9.90667 563.337 10.28C563.657 10.6427 563.903 11.0693 564.073 11.56C564.244 12.0507 564.329 12.568 564.329 13.112C564.329 13.6667 564.244 14.1947 564.073 14.696C563.903 15.1867 563.652 15.6187 563.321 15.992C562.991 16.3547 562.591 16.648 562.121 16.872C561.652 17.0853 561.119 17.192 560.521 17.192ZM567.58 9.272V12.264H570.476C570.87 12.264 571.217 12.328 571.516 12.456C571.825 12.584 572.081 12.76 572.284 12.984C572.497 13.1973 572.652 13.448 572.748 13.736C572.854 14.0133 572.908 14.312 572.908 14.632C572.908 14.952 572.854 15.256 572.748 15.544C572.641 15.832 572.486 16.0827 572.284 16.296C572.081 16.5093 571.825 16.68 571.516 16.808C571.217 16.936 570.87 17 570.476 17H566.38V9.272H567.58ZM567.58 13.32V15.944H570.348C570.785 15.944 571.116 15.8213 571.34 15.576C571.564 15.3307 571.676 15.016 571.676 14.632C571.676 14.2587 571.564 13.9493 571.34 13.704C571.126 13.448 570.796 13.32 570.348 13.32H567.58ZM574.172 17V9.272H575.372V17H574.172ZM102.327 40.008C102.508 39.976 102.668 39.912 102.807 39.816C102.956 39.72 103.09 39.5653 103.207 39.352C103.335 39.1387 103.447 38.8507 103.543 38.488C103.639 38.1253 103.724 37.656 103.799 37.08L104.295 33.272H109.671V39.944H110.567V42.968H109.367V41H103.527V42.968H102.327V40.008ZM104.999 37.224C104.903 37.96 104.759 38.5413 104.567 38.968C104.386 39.3947 104.156 39.72 103.879 39.944H108.471V34.328H105.351L104.999 37.224ZM115.584 41.192C114.997 41.192 114.464 41.0853 113.984 40.872C113.514 40.6587 113.114 40.3707 112.784 40.008C112.453 39.6347 112.197 39.2027 112.016 38.712C111.845 38.2213 111.76 37.6933 111.76 37.128C111.76 36.5733 111.845 36.0507 112.016 35.56C112.197 35.0587 112.453 34.6267 112.784 34.264C113.114 33.9013 113.514 33.6133 113.984 33.4C114.464 33.1867 114.997 33.08 115.584 33.08C116.17 33.08 116.698 33.1867 117.168 33.4C117.648 33.6133 118.053 33.9013 118.384 34.264C118.714 34.6267 118.965 35.0587 119.136 35.56C119.317 36.0507 119.408 36.5733 119.408 37.128C119.408 37.6933 119.317 38.2213 119.136 38.712C118.965 39.2027 118.714 39.6347 118.384 40.008C118.053 40.3707 117.648 40.6587 117.168 40.872C116.698 41.0853 116.17 41.192 115.584 41.192ZM115.584 40.12C116 40.12 116.362 40.04 116.672 39.88C116.992 39.7093 117.258 39.4907 117.472 39.224C117.696 38.9467 117.861 38.6267 117.968 38.264C118.085 37.9013 118.144 37.5227 118.144 37.128C118.144 36.7333 118.085 36.36 117.968 36.008C117.861 35.6453 117.696 35.3307 117.472 35.064C117.258 34.7867 116.992 34.568 116.672 34.408C116.362 34.2373 116 34.152 115.584 34.152C115.168 34.152 114.8 34.2373 114.48 34.408C114.16 34.568 113.888 34.7867 113.664 35.064C113.45 35.3307 113.285 35.6453 113.168 36.008C113.061 36.36 113.008 36.7333 113.008 37.128C113.008 37.5227 113.061 37.9013 113.168 38.264C113.285 38.6267 113.45 38.9467 113.664 39.224C113.888 39.4907 114.16 39.7093 114.48 39.88C114.8 40.04 115.168 40.12 115.584 40.12ZM124.74 40.12C125.156 40.12 125.519 40.04 125.828 39.88C126.148 39.7093 126.415 39.4907 126.628 39.224C126.852 38.9467 127.017 38.6267 127.124 38.264C127.241 37.9013 127.3 37.5173 127.3 37.112C127.3 36.728 127.241 36.36 127.124 36.008C127.017 35.6453 126.852 35.3307 126.628 35.064C126.415 34.7867 126.148 34.568 125.828 34.408C125.519 34.2373 125.156 34.152 124.74 34.152C124.324 34.152 123.956 34.2373 123.636 34.408C123.316 34.568 123.044 34.7867 122.82 35.064C122.607 35.3307 122.441 35.6453 122.324 36.008C122.217 36.36 122.164 36.728 122.164 37.112C122.164 37.5173 122.217 37.9013 122.324 38.264C122.441 38.6267 122.607 38.9467 122.82 39.224C123.044 39.4907 123.316 39.7093 123.636 39.88C123.956 40.04 124.324 40.12 124.74 40.12ZM124.74 41.192C124.143 41.192 123.609 41.0853 123.14 40.872C122.671 40.648 122.271 40.3387 121.94 39.944C121.609 39.5493 121.353 39.0853 121.172 38.552C121.001 38.008 120.916 37.416 120.916 36.776C120.916 35.8373 121.001 35.032 121.172 34.36C121.343 33.6773 121.593 33.112 121.924 32.664C122.265 32.216 122.687 31.8693 123.188 31.624C123.7 31.368 124.292 31.1973 124.964 31.112C125.391 31.048 125.743 30.9893 126.02 30.936C126.297 30.872 126.516 30.808 126.676 30.744C126.847 30.68 126.964 30.616 127.028 30.552C127.103 30.488 127.14 30.4133 127.14 30.328H128.308C128.308 30.648 128.212 30.9147 128.02 31.128C127.828 31.3307 127.583 31.496 127.284 31.624C126.985 31.752 126.655 31.8533 126.292 31.928C125.94 32.0027 125.599 32.0613 125.268 32.104C124.692 32.1893 124.212 32.312 123.828 32.472C123.444 32.632 123.129 32.824 122.884 33.048C122.639 33.272 122.447 33.528 122.308 33.816C122.18 34.0933 122.084 34.3973 122.02 34.728C122.159 34.504 122.324 34.296 122.516 34.104C122.708 33.9013 122.927 33.7253 123.172 33.576C123.417 33.4267 123.684 33.3093 123.972 33.224C124.271 33.128 124.591 33.08 124.932 33.08C125.476 33.08 125.972 33.1867 126.42 33.4C126.868 33.6133 127.247 33.9067 127.556 34.28C127.876 34.6427 128.121 35.0693 128.292 35.56C128.463 36.0507 128.548 36.568 128.548 37.112C128.548 37.6667 128.463 38.1947 128.292 38.696C128.121 39.1867 127.871 39.6187 127.54 39.992C127.209 40.3547 126.809 40.648 126.34 40.872C125.871 41.0853 125.337 41.192 124.74 41.192ZM135.43 41V40.12C134.78 40.8347 133.926 41.192 132.87 41.192C132.54 41.192 132.214 41.1387 131.894 41.032C131.574 40.9253 131.286 40.7653 131.03 40.552C130.774 40.328 130.566 40.056 130.406 39.736C130.246 39.416 130.166 39.048 130.166 38.632C130.166 38.2053 130.246 37.832 130.406 37.512C130.566 37.192 130.774 36.9253 131.03 36.712C131.286 36.4987 131.574 36.344 131.894 36.248C132.214 36.1413 132.54 36.088 132.87 36.088C133.404 36.088 133.884 36.1733 134.31 36.344C134.748 36.5147 135.121 36.7813 135.43 37.144V35.752C135.43 35.2293 135.244 34.8293 134.87 34.552C134.508 34.264 134.044 34.12 133.478 34.12C132.572 34.12 131.782 34.4773 131.11 35.192L130.55 34.36C131.372 33.5067 132.401 33.08 133.638 33.08C134.044 33.08 134.428 33.128 134.79 33.224C135.153 33.32 135.468 33.4747 135.734 33.688C136.012 33.8907 136.23 34.1573 136.39 34.488C136.55 34.8187 136.63 35.2187 136.63 35.688V41H135.43ZM133.302 40.328C133.729 40.328 134.129 40.248 134.502 40.088C134.886 39.928 135.196 39.688 135.43 39.368V37.912C135.196 37.592 134.886 37.352 134.502 37.192C134.129 37.032 133.729 36.952 133.302 36.952C132.737 36.952 132.278 37.112 131.926 37.432C131.574 37.7413 131.398 38.1467 131.398 38.648C131.398 39.1387 131.574 39.544 131.926 39.864C132.278 40.1733 132.737 40.328 133.302 40.328ZM139.036 41V33.272H143.292C143.975 33.272 144.508 33.4587 144.892 33.832C145.276 34.1947 145.468 34.6693 145.468 35.256C145.468 35.7253 145.34 36.1093 145.084 36.408C144.839 36.7067 144.551 36.9093 144.22 37.016C144.412 37.0693 144.593 37.1547 144.764 37.272C144.935 37.3893 145.084 37.5333 145.212 37.704C145.34 37.8747 145.441 38.0613 145.516 38.264C145.591 38.4667 145.628 38.68 145.628 38.904C145.628 39.5333 145.431 40.04 145.036 40.424C144.641 40.808 144.087 41 143.372 41H139.036ZM143.132 39.944C143.516 39.944 143.82 39.8427 144.044 39.64C144.268 39.4267 144.38 39.1333 144.38 38.76C144.38 38.4507 144.273 38.1733 144.06 37.928C143.847 37.6827 143.537 37.56 143.132 37.56H140.236V39.944H143.132ZM143.084 36.504C143.457 36.504 143.74 36.4027 143.932 36.2C144.135 35.9973 144.236 35.7413 144.236 35.432C144.236 35.0907 144.135 34.824 143.932 34.632C143.74 34.4293 143.457 34.328 143.084 34.328H140.236V36.504H143.084ZM146.983 40.2C147.346 40.2 147.645 39.9653 147.879 39.496C148.114 39.0267 148.306 38.2213 148.455 37.08L148.951 33.272H154.327V41H153.127V34.328H150.007L149.655 37.224C149.57 37.9493 149.453 38.5627 149.303 39.064C149.154 39.5653 148.967 39.976 148.743 40.296C148.53 40.6053 148.274 40.8347 147.975 40.984C147.687 41.1227 147.357 41.192 146.983 41.192V40.2ZM156.467 41L158.531 37.96C157.955 37.8853 157.481 37.6453 157.107 37.24C156.734 36.824 156.547 36.2907 156.547 35.64C156.547 35.3093 156.601 35 156.707 34.712C156.814 34.424 156.969 34.1733 157.171 33.96C157.385 33.7467 157.641 33.5813 157.939 33.464C158.249 33.336 158.601 33.272 158.995 33.272H163.075V41H161.875V38.008H159.763L157.875 41H156.467ZM161.875 36.952V34.328H159.123C158.697 34.328 158.366 34.4507 158.131 34.696C157.897 34.9413 157.779 35.256 157.779 35.64C157.779 36.024 157.891 36.3387 158.115 36.584C158.339 36.8293 158.675 36.952 159.123 36.952H161.875ZM166.881 41V34.328H164.641V33.272H170.337V34.328H168.081V41H166.881ZM173.111 33.272V36.264H176.007C176.402 36.264 176.748 36.328 177.047 36.456C177.356 36.584 177.612 36.76 177.815 36.984C178.028 37.1973 178.183 37.448 178.279 37.736C178.386 38.0133 178.439 38.312 178.439 38.632C178.439 38.952 178.386 39.256 178.279 39.544C178.172 39.832 178.018 40.0827 177.815 40.296C177.612 40.5093 177.356 40.68 177.047 40.808C176.748 40.936 176.402 41 176.007 41H171.911V33.272H173.111ZM173.111 37.32V39.944H175.879C176.316 39.944 176.647 39.8213 176.871 39.576C177.095 39.3307 177.207 39.016 177.207 38.632C177.207 38.2587 177.095 37.9493 176.871 37.704C176.658 37.448 176.327 37.32 175.879 37.32H173.111ZM189.627 41V34.328H185.595V41H184.395V33.272H190.827V41H189.627ZM196.599 41.192C196.013 41.192 195.479 41.0853 194.999 40.872C194.53 40.6587 194.13 40.3707 193.799 40.008C193.469 39.6347 193.213 39.2027 193.031 38.712C192.861 38.2213 192.775 37.6933 192.775 37.128C192.775 36.5733 192.861 36.0507 193.031 35.56C193.213 35.0587 193.469 34.6267 193.799 34.264C194.13 33.9013 194.53 33.6133 194.999 33.4C195.479 33.1867 196.013 33.08 196.599 33.08C197.186 33.08 197.714 33.1867 198.183 33.4C198.663 33.6133 199.069 33.9013 199.399 34.264C199.73 34.6267 199.981 35.0587 200.151 35.56C200.333 36.0507 200.423 36.5733 200.423 37.128C200.423 37.6933 200.333 38.2213 200.151 38.712C199.981 39.2027 199.73 39.6347 199.399 40.008C199.069 40.3707 198.663 40.6587 198.183 40.872C197.714 41.0853 197.186 41.192 196.599 41.192ZM196.599 40.12C197.015 40.12 197.378 40.04 197.687 39.88C198.007 39.7093 198.274 39.4907 198.487 39.224C198.711 38.9467 198.877 38.6267 198.983 38.264C199.101 37.9013 199.159 37.5227 199.159 37.128C199.159 36.7333 199.101 36.36 198.983 36.008C198.877 35.6453 198.711 35.3307 198.487 35.064C198.274 34.7867 198.007 34.568 197.687 34.408C197.378 34.2373 197.015 34.152 196.599 34.152C196.183 34.152 195.815 34.2373 195.495 34.408C195.175 34.568 194.903 34.7867 194.679 35.064C194.466 35.3307 194.301 35.6453 194.183 36.008C194.077 36.36 194.023 36.7333 194.023 37.128C194.023 37.5227 194.077 37.9013 194.183 38.264C194.301 38.6267 194.466 38.9467 194.679 39.224C194.903 39.4907 195.175 39.7093 195.495 39.88C195.815 40.04 196.183 40.12 196.599 40.12ZM203.788 41V34.328H201.548V33.272H207.244V34.328H204.988V41H203.788ZM212.305 41.192C211.729 41.192 211.201 41.096 210.721 40.904C210.241 40.7013 209.825 40.424 209.473 40.072C209.132 39.7093 208.86 39.2827 208.657 38.792C208.465 38.2907 208.369 37.736 208.369 37.128C208.369 36.5733 208.465 36.0507 208.657 35.56C208.849 35.0587 209.111 34.6267 209.441 34.264C209.783 33.9013 210.183 33.6133 210.641 33.4C211.111 33.1867 211.623 33.08 212.177 33.08C212.764 33.08 213.287 33.1867 213.745 33.4C214.204 33.6133 214.593 33.9067 214.913 34.28C215.233 34.6533 215.473 35.096 215.633 35.608C215.804 36.1093 215.889 36.648 215.889 37.224V37.528H209.633C209.655 37.8907 209.735 38.2373 209.873 38.568C210.012 38.888 210.199 39.1707 210.433 39.416C210.679 39.6507 210.967 39.8427 211.297 39.992C211.628 40.1307 212.001 40.2 212.417 40.2C212.865 40.2 213.297 40.1147 213.713 39.944C214.129 39.7733 214.492 39.5333 214.801 39.224L215.377 40.008C214.993 40.392 214.545 40.6853 214.033 40.888C213.521 41.0907 212.945 41.192 212.305 41.192ZM214.705 36.648C214.705 36.36 214.652 36.0667 214.545 35.768C214.449 35.4587 214.295 35.1813 214.081 34.936C213.879 34.68 213.617 34.472 213.297 34.312C212.977 34.152 212.599 34.072 212.161 34.072C211.745 34.072 211.383 34.152 211.073 34.312C210.764 34.472 210.503 34.6747 210.289 34.92C210.087 35.1653 209.927 35.4427 209.809 35.752C209.703 36.0507 209.644 36.3493 209.633 36.648H214.705ZM221.641 41.192C221.107 41.192 220.617 41.0747 220.169 40.84C219.721 40.6053 219.342 40.2693 219.033 39.832V43.944H217.833V33.272H219.033V34.424C219.31 34.0293 219.678 33.7093 220.137 33.464C220.595 33.208 221.097 33.08 221.641 33.08C222.153 33.08 222.617 33.176 223.033 33.368C223.459 33.5493 223.822 33.816 224.121 34.168C224.43 34.5093 224.665 34.9307 224.825 35.432C224.995 35.9333 225.081 36.4987 225.081 37.128C225.081 37.7573 224.995 38.3227 224.825 38.824C224.665 39.3253 224.43 39.752 224.121 40.104C223.822 40.456 223.459 40.728 223.033 40.92C222.617 41.1013 222.153 41.192 221.641 41.192ZM221.337 40.12C221.721 40.12 222.067 40.0453 222.377 39.896C222.686 39.7467 222.947 39.5387 223.161 39.272C223.374 39.0053 223.534 38.6907 223.641 38.328C223.758 37.9547 223.817 37.5547 223.817 37.128C223.817 36.7013 223.758 36.3067 223.641 35.944C223.534 35.5813 223.374 35.2667 223.161 35C222.947 34.7333 222.686 34.5253 222.377 34.376C222.067 34.2267 221.721 34.152 221.337 34.152C220.857 34.152 220.403 34.2747 219.977 34.52C219.561 34.7547 219.246 35.0427 219.033 35.384V38.872C219.246 39.2133 219.561 39.5067 219.977 39.752C220.403 39.9973 220.857 40.12 221.337 40.12ZM226.733 41L228.797 37.96C228.221 37.8853 227.746 37.6453 227.373 37.24C227 36.824 226.813 36.2907 226.813 35.64C226.813 35.3093 226.866 35 226.973 34.712C227.08 34.424 227.234 34.1733 227.437 33.96C227.65 33.7467 227.906 33.5813 228.205 33.464C228.514 33.336 228.866 33.272 229.261 33.272H233.341V41H232.141V38.008H230.029L228.141 41H226.733ZM232.141 36.952V34.328H229.389C228.962 34.328 228.632 34.4507 228.397 34.696C228.162 34.9413 228.045 35.256 228.045 35.64C228.045 36.024 228.157 36.3387 228.381 36.584C228.605 36.8293 228.941 36.952 229.389 36.952H232.141ZM245.867 33.272V41H235.739V33.272H236.939V39.944H240.203V33.272H241.403V39.944H244.667V33.272H245.867ZM253.534 41L250.75 37.528L249.47 38.792V41H248.27V33.272H249.47V37.384L253.534 33.272H255.054L251.63 36.776L255.07 41H253.534ZM256.489 41V33.272H257.689V39.176L261.737 33.272H262.921V41H261.721V34.984L257.641 41H256.489ZM269.442 41V33.272H270.642V39.176L274.69 33.272H275.874V41H274.674V34.984L270.594 41H269.442ZM285.803 41.192C285.227 41.192 284.699 41.0907 284.219 40.888C283.75 40.6747 283.345 40.3867 283.003 40.024C282.673 39.6613 282.411 39.2347 282.219 38.744C282.038 38.2427 281.947 37.704 281.947 37.128C281.947 36.552 282.038 36.0187 282.219 35.528C282.411 35.0373 282.673 34.6107 283.003 34.248C283.345 33.8853 283.75 33.6027 284.219 33.4C284.699 33.1867 285.227 33.08 285.803 33.08C286.507 33.08 287.078 33.208 287.515 33.464C287.963 33.72 288.337 34.04 288.635 34.424L287.835 35.16C287.579 34.808 287.286 34.552 286.955 34.392C286.635 34.232 286.273 34.152 285.867 34.152C285.451 34.152 285.078 34.2267 284.747 34.376C284.427 34.5253 284.15 34.7333 283.915 35C283.681 35.2667 283.499 35.5813 283.371 35.944C283.254 36.3067 283.195 36.7013 283.195 37.128C283.195 37.5547 283.254 37.9547 283.371 38.328C283.499 38.6907 283.681 39.0053 283.915 39.272C284.15 39.5387 284.427 39.7467 284.747 39.896C285.078 40.0453 285.451 40.12 285.867 40.12C286.678 40.12 287.334 39.784 287.835 39.112L288.635 39.848C288.337 40.232 287.963 40.552 287.515 40.808C287.078 41.064 286.507 41.192 285.803 41.192ZM289.405 40.2C289.768 40.2 290.067 39.9653 290.301 39.496C290.536 39.0267 290.728 38.2213 290.877 37.08L291.373 33.272H296.749V41H295.549V34.328H292.429L292.077 37.224C291.992 37.9493 291.875 38.5627 291.725 39.064C291.576 39.5653 291.389 39.976 291.165 40.296C290.952 40.6053 290.696 40.8347 290.397 40.984C290.109 41.1227 289.779 41.192 289.405 41.192V40.2ZM302.633 41.192C302.057 41.192 301.529 41.096 301.049 40.904C300.569 40.7013 300.153 40.424 299.801 40.072C299.46 39.7093 299.188 39.2827 298.985 38.792C298.793 38.2907 298.697 37.736 298.697 37.128C298.697 36.5733 298.793 36.0507 298.985 35.56C299.177 35.0587 299.439 34.6267 299.769 34.264C300.111 33.9013 300.511 33.6133 300.969 33.4C301.439 33.1867 301.951 33.08 302.505 33.08C303.092 33.08 303.615 33.1867 304.073 33.4C304.532 33.6133 304.921 33.9067 305.241 34.28C305.561 34.6533 305.801 35.096 305.961 35.608C306.132 36.1093 306.217 36.648 306.217 37.224V37.528H299.961C299.983 37.8907 300.063 38.2373 300.201 38.568C300.34 38.888 300.527 39.1707 300.761 39.416C301.007 39.6507 301.295 39.8427 301.625 39.992C301.956 40.1307 302.329 40.2 302.745 40.2C303.193 40.2 303.625 40.1147 304.041 39.944C304.457 39.7733 304.82 39.5333 305.129 39.224L305.705 40.008C305.321 40.392 304.873 40.6853 304.361 40.888C303.849 41.0907 303.273 41.192 302.633 41.192ZM305.033 36.648C305.033 36.36 304.98 36.0667 304.873 35.768C304.777 35.4587 304.623 35.1813 304.409 34.936C304.207 34.68 303.945 34.472 303.625 34.312C303.305 34.152 302.927 34.072 302.489 34.072C302.073 34.072 301.711 34.152 301.401 34.312C301.092 34.472 300.831 34.6747 300.617 34.92C300.415 35.1653 300.255 35.4427 300.137 35.752C300.031 36.0507 299.972 36.3493 299.961 36.648H305.033ZM307.249 40.008C307.43 39.976 307.59 39.912 307.729 39.816C307.878 39.72 308.012 39.5653 308.129 39.352C308.257 39.1387 308.369 38.8507 308.465 38.488C308.561 38.1253 308.646 37.656 308.721 37.08L309.217 33.272H314.593V39.944H315.489V42.968H314.289V41H308.449V42.968H307.249V40.008ZM309.921 37.224C309.825 37.96 309.681 38.5413 309.489 38.968C309.308 39.3947 309.078 39.72 308.801 39.944H313.393V34.328H310.273L309.921 37.224ZM317.13 41V33.272H318.33V39.176L322.378 33.272H323.562V41H322.362V34.984L318.282 41H317.13ZM327.366 41V34.328H325.126V33.272H330.822V34.328H328.566V41H327.366ZM333.595 33.272V36.264H336.491C336.886 36.264 337.233 36.328 337.531 36.456C337.841 36.584 338.097 36.76 338.299 36.984C338.513 37.1973 338.667 37.448 338.763 37.736C338.87 38.0133 338.923 38.312 338.923 38.632C338.923 38.952 338.87 39.256 338.763 39.544C338.657 39.832 338.502 40.0827 338.299 40.296C338.097 40.5093 337.841 40.68 337.531 40.808C337.233 40.936 336.886 41 336.491 41H332.395V33.272H333.595ZM333.595 37.32V39.944H336.363C336.801 39.944 337.131 39.8213 337.355 39.576C337.579 39.3307 337.691 39.016 337.691 38.632C337.691 38.2587 337.579 37.9493 337.355 37.704C337.142 37.448 336.811 37.32 336.363 37.32H333.595ZM347.616 41.192C346.837 41.192 346.154 41.08 345.568 40.856C344.992 40.6213 344.512 40.312 344.128 39.928L344.72 39.16C345.082 39.5013 345.509 39.7627 346 39.944C346.501 40.1147 347.04 40.2 347.616 40.2C348.309 40.2 348.858 40.0773 349.264 39.832C349.68 39.5867 349.888 39.2613 349.888 38.856C349.888 38.6213 349.824 38.424 349.696 38.264C349.568 38.0933 349.392 37.96 349.168 37.864C348.954 37.7573 348.698 37.6827 348.4 37.64C348.112 37.5973 347.797 37.576 347.456 37.576H345.728V36.6H347.456C347.776 36.6 348.074 36.5733 348.352 36.52C348.629 36.4667 348.869 36.3867 349.072 36.28C349.285 36.1733 349.45 36.04 349.568 35.88C349.685 35.72 349.744 35.528 349.744 35.304C349.744 35.1227 349.685 34.9573 349.568 34.808C349.45 34.648 349.29 34.5147 349.088 34.408C348.896 34.3013 348.661 34.2213 348.384 34.168C348.106 34.104 347.808 34.072 347.488 34.072C346.41 34.072 345.546 34.4027 344.896 35.064L344.272 34.328C344.634 33.9547 345.077 33.656 345.6 33.432C346.122 33.208 346.736 33.096 347.44 33.096C347.962 33.096 348.437 33.144 348.864 33.24C349.301 33.3253 349.674 33.4587 349.984 33.64C350.304 33.8107 350.549 34.024 350.72 34.28C350.901 34.536 350.992 34.8293 350.992 35.16C350.992 35.448 350.922 35.704 350.784 35.928C350.656 36.152 350.49 36.344 350.288 36.504C350.085 36.6533 349.861 36.776 349.616 36.872C349.37 36.9573 349.136 37.016 348.912 37.048C349.136 37.0693 349.376 37.1173 349.632 37.192C349.898 37.2667 350.144 37.384 350.368 37.544C350.592 37.6933 350.778 37.8853 350.928 38.12C351.077 38.344 351.152 38.616 351.152 38.936C351.152 39.256 351.072 39.5547 350.912 39.832C350.752 40.1093 350.517 40.3493 350.208 40.552C349.909 40.7547 349.541 40.9093 349.104 41.016C348.666 41.1333 348.17 41.192 347.616 41.192ZM357.93 41V40.12C357.28 40.8347 356.426 41.192 355.37 41.192C355.04 41.192 354.714 41.1387 354.394 41.032C354.074 40.9253 353.786 40.7653 353.53 40.552C353.274 40.328 353.066 40.056 352.906 39.736C352.746 39.416 352.666 39.048 352.666 38.632C352.666 38.2053 352.746 37.832 352.906 37.512C353.066 37.192 353.274 36.9253 353.53 36.712C353.786 36.4987 354.074 36.344 354.394 36.248C354.714 36.1413 355.04 36.088 355.37 36.088C355.904 36.088 356.384 36.1733 356.81 36.344C357.248 36.5147 357.621 36.7813 357.93 37.144V35.752C357.93 35.2293 357.744 34.8293 357.37 34.552C357.008 34.264 356.544 34.12 355.978 34.12C355.072 34.12 354.282 34.4773 353.61 35.192L353.05 34.36C353.872 33.5067 354.901 33.08 356.138 33.08C356.544 33.08 356.928 33.128 357.29 33.224C357.653 33.32 357.968 33.4747 358.234 33.688C358.512 33.8907 358.73 34.1573 358.89 34.488C359.05 34.8187 359.13 35.2187 359.13 35.688V41H357.93ZM355.802 40.328C356.229 40.328 356.629 40.248 357.002 40.088C357.386 39.928 357.696 39.688 357.93 39.368V37.912C357.696 37.592 357.386 37.352 357.002 37.192C356.629 37.032 356.229 36.952 355.802 36.952C355.237 36.952 354.778 37.112 354.426 37.432C354.074 37.7413 353.898 38.1467 353.898 38.648C353.898 39.1387 354.074 39.544 354.426 39.864C354.778 40.1733 355.237 40.328 355.802 40.328ZM365.661 41V33.272H366.861V36.488H370.893V33.272H372.093V41H370.893V37.544H366.861V41H365.661ZM377.865 41.192C377.278 41.192 376.745 41.0853 376.265 40.872C375.796 40.6587 375.396 40.3707 375.065 40.008C374.734 39.6347 374.478 39.2027 374.297 38.712C374.126 38.2213 374.041 37.6933 374.041 37.128C374.041 36.5733 374.126 36.0507 374.297 35.56C374.478 35.0587 374.734 34.6267 375.065 34.264C375.396 33.9013 375.796 33.6133 376.265 33.4C376.745 33.1867 377.278 33.08 377.865 33.08C378.452 33.08 378.98 33.1867 379.449 33.4C379.929 33.6133 380.334 33.9013 380.665 34.264C380.996 34.6267 381.246 35.0587 381.417 35.56C381.598 36.0507 381.689 36.5733 381.689 37.128C381.689 37.6933 381.598 38.2213 381.417 38.712C381.246 39.2027 380.996 39.6347 380.665 40.008C380.334 40.3707 379.929 40.6587 379.449 40.872C378.98 41.0853 378.452 41.192 377.865 41.192ZM377.865 40.12C378.281 40.12 378.644 40.04 378.953 39.88C379.273 39.7093 379.54 39.4907 379.753 39.224C379.977 38.9467 380.142 38.6267 380.249 38.264C380.366 37.9013 380.425 37.5227 380.425 37.128C380.425 36.7333 380.366 36.36 380.249 36.008C380.142 35.6453 379.977 35.3307 379.753 35.064C379.54 34.7867 379.273 34.568 378.953 34.408C378.644 34.2373 378.281 34.152 377.865 34.152C377.449 34.152 377.081 34.2373 376.761 34.408C376.441 34.568 376.169 34.7867 375.945 35.064C375.732 35.3307 375.566 35.6453 375.449 36.008C375.342 36.36 375.289 36.7333 375.289 37.128C375.289 37.5227 375.342 37.9013 375.449 38.264C375.566 38.6267 375.732 38.9467 375.945 39.224C376.169 39.4907 376.441 39.7093 376.761 39.88C377.081 40.04 377.449 40.12 377.865 40.12ZM383.645 41V33.272H387.901C388.584 33.272 389.117 33.4587 389.501 33.832C389.885 34.1947 390.077 34.6693 390.077 35.256C390.077 35.7253 389.949 36.1093 389.693 36.408C389.448 36.7067 389.16 36.9093 388.829 37.016C389.021 37.0693 389.203 37.1547 389.373 37.272C389.544 37.3893 389.693 37.5333 389.821 37.704C389.949 37.8747 390.051 38.0613 390.125 38.264C390.2 38.4667 390.237 38.68 390.237 38.904C390.237 39.5333 390.04 40.04 389.645 40.424C389.251 40.808 388.696 41 387.981 41H383.645ZM387.741 39.944C388.125 39.944 388.429 39.8427 388.653 39.64C388.877 39.4267 388.989 39.1333 388.989 38.76C388.989 38.4507 388.883 38.1733 388.669 37.928C388.456 37.6827 388.147 37.56 387.741 37.56H384.845V39.944H387.741ZM387.693 36.504C388.067 36.504 388.349 36.4027 388.541 36.2C388.744 35.9973 388.845 35.7413 388.845 35.432C388.845 35.0907 388.744 34.824 388.541 34.632C388.349 34.4293 388.067 34.328 387.693 34.328H384.845V36.504H387.693ZM393.705 33.272V36.264H396.601C396.995 36.264 397.342 36.328 397.641 36.456C397.95 36.584 398.206 36.76 398.409 36.984C398.622 37.1973 398.777 37.448 398.873 37.736C398.979 38.0133 399.033 38.312 399.033 38.632C399.033 38.952 398.979 39.256 398.873 39.544C398.766 39.832 398.611 40.0827 398.409 40.296C398.206 40.5093 397.95 40.68 397.641 40.808C397.342 40.936 396.995 41 396.601 41H392.505V33.272H393.705ZM393.705 37.32V39.944H396.473C396.91 39.944 397.241 39.8213 397.465 39.576C397.689 39.3307 397.801 39.016 397.801 38.632C397.801 38.2587 397.689 37.9493 397.465 37.704C397.251 37.448 396.921 37.32 396.473 37.32H393.705ZM400.297 41V33.272H401.497V41H400.297ZM410.583 41V34.936L408.071 41H407.623L405.095 34.936V41H403.895V33.272H405.479L407.847 39L410.183 33.272H411.783V41H410.583ZM414.177 41V33.272H415.377V39.176L419.425 33.272H420.609V41H419.409V34.984L415.329 41H414.177ZM427.13 41V33.272H428.33V36.488H432.362V33.272H433.562V41H432.362V37.544H428.33V41H427.13ZM440.79 41V40.12C440.139 40.8347 439.286 41.192 438.23 41.192C437.899 41.192 437.574 41.1387 437.254 41.032C436.934 40.9253 436.646 40.7653 436.39 40.552C436.134 40.328 435.926 40.056 435.766 39.736C435.606 39.416 435.526 39.048 435.526 38.632C435.526 38.2053 435.606 37.832 435.766 37.512C435.926 37.192 436.134 36.9253 436.39 36.712C436.646 36.4987 436.934 36.344 437.254 36.248C437.574 36.1413 437.899 36.088 438.23 36.088C438.763 36.088 439.243 36.1733 439.67 36.344C440.107 36.5147 440.48 36.7813 440.79 37.144V35.752C440.79 35.2293 440.603 34.8293 440.23 34.552C439.867 34.264 439.403 34.12 438.838 34.12C437.931 34.12 437.142 34.4773 436.47 35.192L435.91 34.36C436.731 33.5067 437.76 33.08 438.998 33.08C439.403 33.08 439.787 33.128 440.15 33.224C440.512 33.32 440.827 33.4747 441.094 33.688C441.371 33.8907 441.59 34.1573 441.75 34.488C441.91 34.8187 441.99 35.2187 441.99 35.688V41H440.79ZM438.662 40.328C439.088 40.328 439.488 40.248 439.862 40.088C440.246 39.928 440.555 39.688 440.79 39.368V37.912C440.555 37.592 440.246 37.352 439.862 37.192C439.488 37.032 439.088 36.952 438.662 36.952C438.096 36.952 437.638 37.112 437.286 37.432C436.934 37.7413 436.758 38.1467 436.758 38.648C436.758 39.1387 436.934 39.544 437.286 39.864C437.638 40.1733 438.096 40.328 438.662 40.328ZM449.403 41L447.083 37.832L444.763 41H443.387L446.347 37.032L443.547 33.272H444.939L447.083 36.216L449.227 33.272H450.619L447.819 37.032L450.795 41H449.403ZM454.959 41.192C454.372 41.192 453.839 41.0853 453.359 40.872C452.889 40.6587 452.489 40.3707 452.159 40.008C451.828 39.6347 451.572 39.2027 451.391 38.712C451.22 38.2213 451.135 37.6933 451.135 37.128C451.135 36.5733 451.22 36.0507 451.391 35.56C451.572 35.0587 451.828 34.6267 452.159 34.264C452.489 33.9013 452.889 33.6133 453.359 33.4C453.839 33.1867 454.372 33.08 454.959 33.08C455.545 33.08 456.073 33.1867 456.543 33.4C457.023 33.6133 457.428 33.9013 457.759 34.264C458.089 34.6267 458.34 35.0587 458.511 35.56C458.692 36.0507 458.783 36.5733 458.783 37.128C458.783 37.6933 458.692 38.2213 458.511 38.712C458.34 39.2027 458.089 39.6347 457.759 40.008C457.428 40.3707 457.023 40.6587 456.543 40.872C456.073 41.0853 455.545 41.192 454.959 41.192ZM454.959 40.12C455.375 40.12 455.737 40.04 456.047 39.88C456.367 39.7093 456.633 39.4907 456.847 39.224C457.071 38.9467 457.236 38.6267 457.343 38.264C457.46 37.9013 457.519 37.5227 457.519 37.128C457.519 36.7333 457.46 36.36 457.343 36.008C457.236 35.6453 457.071 35.3307 456.847 35.064C456.633 34.7867 456.367 34.568 456.047 34.408C455.737 34.2373 455.375 34.152 454.959 34.152C454.543 34.152 454.175 34.2373 453.855 34.408C453.535 34.568 453.263 34.7867 453.039 35.064C452.825 35.3307 452.66 35.6453 452.543 36.008C452.436 36.36 452.383 36.7333 452.383 37.128C452.383 37.5227 452.436 37.9013 452.543 38.264C452.66 38.6267 452.825 38.9467 453.039 39.224C453.263 39.4907 453.535 39.7093 453.855 39.88C454.175 40.04 454.543 40.12 454.959 40.12ZM459.827 40.008C460.008 39.976 460.168 39.912 460.307 39.816C460.456 39.72 460.59 39.5653 460.707 39.352C460.835 39.1387 460.947 38.8507 461.043 38.488C461.139 38.1253 461.224 37.656 461.299 37.08L461.795 33.272H467.171V39.944H468.067V42.968H466.867V41H461.027V42.968H459.827V40.008ZM462.499 37.224C462.403 37.96 462.259 38.5413 462.067 38.968C461.886 39.3947 461.656 39.72 461.379 39.944H465.971V34.328H462.851L462.499 37.224ZM474.972 41L472.188 37.528L470.908 38.792V41H469.708V33.272H470.908V37.384L474.972 33.272H476.492L473.068 36.776L476.508 41H474.972ZM482.759 41V40.12C482.108 40.8347 481.255 41.192 480.199 41.192C479.868 41.192 479.543 41.1387 479.223 41.032C478.903 40.9253 478.615 40.7653 478.359 40.552C478.103 40.328 477.895 40.056 477.735 39.736C477.575 39.416 477.495 39.048 477.495 38.632C477.495 38.2053 477.575 37.832 477.735 37.512C477.895 37.192 478.103 36.9253 478.359 36.712C478.615 36.4987 478.903 36.344 479.223 36.248C479.543 36.1413 479.868 36.088 480.199 36.088C480.732 36.088 481.212 36.1733 481.639 36.344C482.076 36.5147 482.449 36.7813 482.759 37.144V35.752C482.759 35.2293 482.572 34.8293 482.199 34.552C481.836 34.264 481.372 34.12 480.807 34.12C479.9 34.12 479.111 34.4773 478.439 35.192L477.879 34.36C478.7 33.5067 479.729 33.08 480.967 33.08C481.372 33.08 481.756 33.128 482.119 33.224C482.481 33.32 482.796 33.4747 483.063 33.688C483.34 33.8907 483.559 34.1573 483.719 34.488C483.879 34.8187 483.959 35.2187 483.959 35.688V41H482.759ZM480.631 40.328C481.057 40.328 481.457 40.248 481.831 40.088C482.215 39.928 482.524 39.688 482.759 39.368V37.912C482.524 37.592 482.215 37.352 481.831 37.192C481.457 37.032 481.057 36.952 480.631 36.952C480.065 36.952 479.607 37.112 479.255 37.432C478.903 37.7413 478.727 38.1467 478.727 38.648C478.727 39.1387 478.903 39.544 479.255 39.864C479.607 40.1733 480.065 40.328 480.631 40.328ZM493.052 41V34.936L490.54 41H490.092L487.564 34.936V41H486.364V33.272H487.948L490.316 39L492.652 33.272H494.252V41H493.052ZM496.645 41V33.272H497.845V39.176L501.893 33.272H503.077V41H501.877V34.984L497.797 41H496.645ZM506.113 41.16C505.868 41.16 505.66 41.0747 505.489 40.904C505.319 40.7333 505.233 40.5253 505.233 40.28C505.233 40.0347 505.319 39.8267 505.489 39.656C505.66 39.4853 505.868 39.4 506.113 39.4C506.359 39.4 506.567 39.4853 506.737 39.656C506.908 39.8267 506.993 40.0347 506.993 40.28C506.993 40.5253 506.908 40.7333 506.737 40.904C506.567 41.0747 506.359 41.16 506.113 41.16Z" fill="#2B2A29"/>
<path fill-rule="evenodd" clip-rule="evenodd" d="M520.285 12.645C520.992 11.9268 521.385 10.9571 521.377 9.94931C521.369 8.94149 520.961 7.97808 520.243 7.27101C519.887 6.92091 519.466 6.64427 519.003 6.45691C518.541 6.26955 518.046 6.17512 517.547 6.17902C516.539 6.18689 515.576 6.5948 514.869 7.31301C514.677 7.50501 514.433 7.74068 514.137 8.02001L513.314 8.79501L512.491 8.02001C512.194 7.74001 511.95 7.50434 511.758 7.31301C511.045 6.60038 510.079 6.20002 509.071 6.20002C508.063 6.20002 507.096 6.60038 506.384 7.31301C504.916 8.78201 504.899 11.157 506.33 12.633L513.314 19.617L520.285 12.645ZM505.535 6.46501C505.999 6.00058 506.55 5.63216 507.157 5.38081C507.764 5.12945 508.414 5.00008 509.071 5.00008C509.727 5.00008 510.378 5.12945 510.984 5.38081C511.591 5.63216 512.142 6.00058 512.607 6.46501C512.789 6.64768 513.024 6.87501 513.314 7.14701C513.602 6.87501 513.837 6.64734 514.021 6.46401C514.951 5.51918 516.219 4.98269 517.545 4.97256C518.871 4.96243 520.147 5.4795 521.092 6.41001C522.037 7.34052 522.573 8.60826 522.583 9.93433C522.593 11.2604 522.076 12.5362 521.146 13.481L514.021 20.607C513.833 20.7945 513.579 20.8998 513.314 20.8998C513.049 20.8998 512.794 20.7945 512.607 20.607L505.48 13.48C504.566 12.5374 504.059 11.2731 504.069 9.96024C504.08 8.64734 504.606 7.39117 505.535 6.46301V6.46501Z" fill="#2B2A29" fill-opacity="0.8"/>
</svg>
