<svg width="41" height="42" viewBox="0 0 41 42" fill="none" xmlns="http://www.w3.org/2000/svg">
<path d="M27.3449 20.6302L11.7602 5.22932C11.7602 5.22932 7.94024 0.918979 4.21485 3.07415C2.82266 3.88019 2.02344 5.41898 2.02344 7.03105V33.3974C2.02344 34.8414 2.52188 36.2466 3.46289 37.3371C5.34922 39.5311 8.89414 41.8112 12.9074 35.2336" stroke="#2B2A29" stroke-width="4" stroke-miterlimit="10" stroke-linecap="round"/>
<path d="M13.509 21.4104L29.0938 36.8113C29.0938 36.8113 32.9137 41.1216 36.6391 38.9664C38.0313 38.1604 38.8305 36.6216 38.8305 35.0095V8.64317C38.8305 7.1992 38.332 5.79403 37.391 4.70352C35.5047 2.50955 31.9598 0.22938 27.9465 6.80697" stroke="#2B2A29" stroke-width="4" stroke-miterlimit="10" stroke-linecap="round"/>
</svg>
