<svg width="24" height="24" viewBox="0 0 24 24" fill="none" xmlns="http://www.w3.org/2000/svg">
<path d="M11.9415 11.4C14.2611 11.4 16.1415 9.5196 16.1415 7.2C16.1415 4.8804 14.2611 3 11.9415 3C9.62186 3 7.74146 4.8804 7.74146 7.2C7.74146 9.5196 9.62186 11.4 11.9415 11.4Z" stroke="white" stroke-opacity="0.8" stroke-width="1.2" stroke-linecap="round"/>
<path d="M3.36142 17.9376C4.12822 15.1236 7.03942 13.8 9.95542 13.8H13.9274C16.8434 13.8 19.7546 15.1236 20.5226 17.9376C20.6896 18.5485 20.808 19.1716 20.8766 19.8012C20.9486 20.4612 20.4038 21 19.7414 21H4.14142C3.47902 21 2.93542 20.46 3.00622 19.8024C3.07479 19.1724 3.19436 18.5489 3.36142 17.9376Z" stroke="white" stroke-opacity="0.8" stroke-width="1.2" stroke-linecap="round"/>
</svg>
