<svg width="7" height="12" viewBox="0 0 7 12" fill="none" xmlns="http://www.w3.org/2000/svg">
<path d="M0.575921 1.15073C0.523293 1.09504 0.482151 1.02953 0.454842 0.957938C0.427533 0.886346 0.414592 0.810076 0.416759 0.733483C0.418925 0.65689 0.436157 0.581474 0.46747 0.511541C0.498782 0.441608 0.543562 0.378526 0.599254 0.325899C0.654945 0.273272 0.720458 0.232129 0.792049 0.20482C0.863641 0.177511 0.93991 0.164571 1.0165 0.166737C1.0931 0.168904 1.16851 0.186136 1.23845 0.217448C1.30838 0.248761 1.37146 0.293541 1.42409 0.349233L6.38242 5.59923C6.48482 5.70754 6.54187 5.85093 6.54187 5.99998C6.54187 6.14903 6.48482 6.29243 6.38242 6.40073L1.42409 11.6513C1.37181 11.7082 1.30874 11.7542 1.23855 11.7865C1.16836 11.8188 1.09244 11.8369 1.01521 11.8397C0.937984 11.8424 0.860978 11.8298 0.78867 11.8025C0.716362 11.7752 0.650193 11.7339 0.594006 11.6808C0.537818 11.6278 0.492734 11.5641 0.46137 11.4934C0.430007 11.4228 0.412989 11.3466 0.411307 11.2694C0.409624 11.1921 0.423309 11.1153 0.451569 11.0434C0.479827 10.9714 0.522097 10.9059 0.575921 10.8504L5.15625 5.99998L0.575921 1.15073Z" fill="#272C30"/>
</svg>
