<svg width="12" height="13" viewBox="0 0 12 13" fill="none" xmlns="http://www.w3.org/2000/svg">
<path d="M11.6582 9.92666L8.94819 7.46266C8.82016 7.34607 8.65179 7.28387 8.47872 7.28922C8.30564 7.29457 8.14144 7.36706 8.02085 7.49133L6.42552 9.132C6.04152 9.05866 5.26952 8.818 4.47485 8.02533C3.68019 7.23 3.43952 6.456 3.36819 6.07466L5.00752 4.47866C5.1318 4.35808 5.20428 4.19388 5.20963 4.0208C5.21498 3.84772 5.15278 3.67936 5.03619 3.55133L2.57285 0.841997C2.45622 0.713568 2.29411 0.635666 2.12096 0.624836C1.94781 0.614007 1.77725 0.671102 1.64552 0.783997L0.198855 2.02466C0.0835955 2.14034 0.014801 2.2943 0.00552131 2.45733C-0.00447869 2.624 -0.195145 6.572 2.86619 9.63466C5.53685 12.3047 8.88219 12.5 9.80352 12.5C9.93819 12.5 10.0209 12.496 10.0429 12.4947C10.2057 12.485 10.3594 12.416 10.4749 12.3007L11.7149 10.8533C11.8282 10.722 11.8857 10.5516 11.8751 10.3785C11.8645 10.2053 11.7867 10.0432 11.6582 9.92666Z" fill="#2B2A29"/>
</svg>
