<svg width="14" height="11" viewBox="0 0 14 11" fill="none" xmlns="http://www.w3.org/2000/svg">
<path d="M12 0.166656H1.33333C0.6 0.166656 0 0.766657 0 1.49999V9.49999C0 10.2333 0.6 10.8333 1.33333 10.8333H12C12.7333 10.8333 13.3333 10.2333 13.3333 9.49999V1.49999C13.3333 0.766657 12.7333 0.166656 12 0.166656ZM11.7333 2.99999L7.37333 5.72666C6.94 5.99999 6.39333 5.99999 5.96 5.72666L1.6 2.99999C1.53315 2.96246 1.47461 2.91176 1.42793 2.85096C1.38124 2.79015 1.34737 2.72051 1.32838 2.64624C1.30939 2.57197 1.30567 2.49461 1.31744 2.41886C1.32921 2.34311 1.35622 2.27053 1.39685 2.20552C1.43748 2.14052 1.49088 2.08443 1.55382 2.04065C1.61675 1.99688 1.68791 1.96633 1.763 1.95086C1.83808 1.93538 1.91552 1.9353 1.99064 1.95062C2.06575 1.96594 2.13698 1.99635 2.2 2.03999L6.66667 4.83332L11.1333 2.03999C11.1964 1.99635 11.2676 1.96594 11.3427 1.95062C11.4178 1.9353 11.4953 1.93538 11.5703 1.95086C11.6454 1.96633 11.7166 1.99688 11.7795 2.04065C11.8424 2.08443 11.8958 2.14052 11.9365 2.20552C11.9771 2.27053 12.0041 2.34311 12.0159 2.41886C12.0277 2.49461 12.0239 2.57197 12.0049 2.64624C11.986 2.72051 11.9521 2.79015 11.9054 2.85096C11.8587 2.91176 11.8002 2.96246 11.7333 2.99999Z" fill="#2B2A29"/>
</svg>
