<svg width="24" height="24" viewBox="0 0 24 24" fill="none" xmlns="http://www.w3.org/2000/svg">
<path fill-rule="evenodd" clip-rule="evenodd" d="M19.2851 12.645C19.9921 11.9268 20.3849 10.9571 20.377 9.9493C20.3692 8.94148 19.9613 7.97807 19.2431 7.271C18.8874 6.9209 18.4663 6.64427 18.0038 6.4569C17.5413 6.26954 17.0464 6.17511 16.5474 6.17901C15.5395 6.18689 14.5761 6.5948 13.8691 7.313C13.6771 7.505 13.4331 7.74067 13.1371 8.02L12.3141 8.795L11.4911 8.02C11.1944 7.74 10.9501 7.50434 10.7581 7.313C10.0454 6.60037 9.07888 6.20001 8.07106 6.20001C7.06324 6.20001 6.09669 6.60037 5.38406 7.313C3.91606 8.782 3.89906 11.157 5.33006 12.633L12.3141 19.617L19.2851 12.645ZM4.53506 6.465C4.99937 6.00057 5.55062 5.63215 6.15733 5.3808C6.76405 5.12944 7.41434 5.00007 8.07106 5.00007C8.72778 5.00007 9.37806 5.12944 9.98478 5.3808C10.5915 5.63215 11.1427 6.00057 11.6071 6.465C11.7891 6.64767 12.0247 6.875 12.3141 7.147C12.6021 6.875 12.8377 6.64734 13.0211 6.464C13.9516 5.51917 15.2193 4.98268 16.5454 4.97255C17.8714 4.96242 19.1472 5.47949 20.0921 6.41C21.0369 7.34051 21.5734 8.60825 21.5835 9.93432C21.5936 11.2604 21.0766 12.5362 20.1461 13.481L13.0211 20.607C12.8335 20.7945 12.5792 20.8998 12.3141 20.8998C12.0489 20.8998 11.7946 20.7945 11.6071 20.607L4.48006 13.48C3.5661 12.5374 3.05957 11.2731 3.06986 9.96023C3.08015 8.64733 3.60643 7.39116 4.53506 6.463V6.465Z" fill="white" fill-opacity="0.8"/>
</svg>
